%TF.GenerationSoftware,KiCad,Pcbnew,(5.1.10)-1*%
%TF.CreationDate,2021-10-16T09:54:26+02:00*%
%TF.ProjectId,Teleinfo,54656c65-696e-4666-9f2e-6b696361645f,rev?*%
%TF.SameCoordinates,Original*%
%TF.FileFunction,Soldermask,Bot*%
%TF.FilePolarity,Negative*%
%FSLAX46Y46*%
G04 Gerber Fmt 4.6, Leading zero omitted, Abs format (unit mm)*
G04 Created by KiCad (PCBNEW (5.1.10)-1) date 2021-10-16 09:54:26*
%MOMM*%
%LPD*%
G01*
G04 APERTURE LIST*
%ADD10C,1.560000*%
%ADD11R,1.560000X1.560000*%
%ADD12C,0.650000*%
%ADD13C,1.524000*%
%ADD14O,1.524000X1.862000*%
%ADD15O,1.700000X1.700000*%
%ADD16R,1.700000X1.700000*%
%ADD17C,3.000000*%
%ADD18R,3.000000X3.000000*%
G04 APERTURE END LIST*
D10*
%TO.C,U103*%
X82550000Y-107240000D03*
X82550000Y-104700000D03*
X82550000Y-102160000D03*
X82550000Y-99620000D03*
X82550000Y-97080000D03*
X82550000Y-94540000D03*
X82550000Y-92000000D03*
X82550000Y-89460000D03*
X82550000Y-86920000D03*
X82550000Y-84380000D03*
X82550000Y-81840000D03*
X82550000Y-79300000D03*
X82550000Y-76760000D03*
X82550000Y-74220000D03*
X82550000Y-71680000D03*
X82550000Y-69140000D03*
X82550000Y-66600000D03*
X82550000Y-64060000D03*
X82550000Y-61520000D03*
X57150000Y-104700000D03*
X57150000Y-102160000D03*
X57150000Y-99620000D03*
X57150000Y-97080000D03*
X57150000Y-94540000D03*
X57150000Y-92000000D03*
X57150000Y-89460000D03*
X57150000Y-86920000D03*
X57150000Y-84380000D03*
X57150000Y-81840000D03*
X57150000Y-79300000D03*
X57150000Y-76760000D03*
X57150000Y-74220000D03*
X57150000Y-71680000D03*
X57150000Y-69140000D03*
X57150000Y-66600000D03*
X57150000Y-107240000D03*
X57150000Y-64060000D03*
D11*
X57150000Y-61520000D03*
%TD*%
D10*
%TO.C,J301*%
X94240000Y-64530000D03*
X91240000Y-64530000D03*
X87240000Y-64530000D03*
X86240000Y-59930000D03*
D12*
X95940000Y-62230000D03*
X88940000Y-62230000D03*
%TD*%
D10*
%TO.C,J306*%
X94240000Y-121680000D03*
X91240000Y-121680000D03*
X87240000Y-121680000D03*
X86240000Y-117080000D03*
D12*
X95940000Y-119380000D03*
X88940000Y-119380000D03*
%TD*%
D10*
%TO.C,J305*%
X94240000Y-110250000D03*
X91240000Y-110250000D03*
X87240000Y-110250000D03*
X86240000Y-105650000D03*
D12*
X95940000Y-107950000D03*
X88940000Y-107950000D03*
%TD*%
D10*
%TO.C,J304*%
X94240000Y-98820000D03*
X91240000Y-98820000D03*
X87240000Y-98820000D03*
X86240000Y-94220000D03*
D12*
X95940000Y-96520000D03*
X88940000Y-96520000D03*
%TD*%
D10*
%TO.C,J303*%
X94240000Y-87390000D03*
X91240000Y-87390000D03*
X87240000Y-87390000D03*
X86240000Y-82790000D03*
D12*
X95940000Y-85090000D03*
X88940000Y-85090000D03*
%TD*%
D10*
%TO.C,J302*%
X94240000Y-75960000D03*
X91240000Y-75960000D03*
X87240000Y-75960000D03*
X86240000Y-71360000D03*
D12*
X95940000Y-73660000D03*
X88940000Y-73660000D03*
%TD*%
D13*
%TO.C,J101*%
X88785000Y-134823000D03*
X83935000Y-134823000D03*
D14*
X89985000Y-137473000D03*
X82735000Y-137473000D03*
%TD*%
D15*
%TO.C,J102*%
X95250000Y-55245000D03*
X92710000Y-55245000D03*
D16*
X90170000Y-55245000D03*
%TD*%
D17*
%TO.C,J202*%
X76200000Y-135890000D03*
D18*
X71120000Y-135890000D03*
%TD*%
D17*
%TO.C,J201*%
X63500000Y-135890000D03*
D18*
X58420000Y-135890000D03*
%TD*%
M02*
