%TF.GenerationSoftware,KiCad,Pcbnew,(5.1.10)-1*%
%TF.CreationDate,2021-10-16T09:54:26+02:00*%
%TF.ProjectId,Teleinfo,54656c65-696e-4666-9f2e-6b696361645f,rev?*%
%TF.SameCoordinates,Original*%
%TF.FileFunction,Legend,Top*%
%TF.FilePolarity,Positive*%
%FSLAX46Y46*%
G04 Gerber Fmt 4.6, Leading zero omitted, Abs format (unit mm)*
G04 Created by KiCad (PCBNEW (5.1.10)-1) date 2021-10-16 09:54:26*
%MOMM*%
%LPD*%
G01*
G04 APERTURE LIST*
%ADD10C,0.127000*%
%ADD11C,0.120000*%
%ADD12C,0.200000*%
%ADD13C,0.100000*%
%ADD14C,0.150000*%
%ADD15C,0.254000*%
G04 APERTURE END LIST*
D10*
%TO.C,U103*%
X55900000Y-108530000D02*
X55900000Y-54130000D01*
X55900000Y-54130000D02*
X83800000Y-54130000D01*
X83800000Y-54130000D02*
X83800000Y-108530000D01*
X83800000Y-108530000D02*
X55900000Y-108530000D01*
D11*
%TO.C,R314*%
X93752936Y-133885000D02*
X94207064Y-133885000D01*
X93752936Y-135355000D02*
X94207064Y-135355000D01*
%TO.C,R313*%
X94207064Y-127735000D02*
X93752936Y-127735000D01*
X94207064Y-126265000D02*
X93752936Y-126265000D01*
%TO.C,R310*%
X82777064Y-129259000D02*
X82322936Y-129259000D01*
X82777064Y-127789000D02*
X82322936Y-127789000D01*
%TO.C,R309*%
X82777064Y-127227000D02*
X82322936Y-127227000D01*
X82777064Y-125757000D02*
X82322936Y-125757000D01*
%TO.C,R308*%
X82777064Y-125195000D02*
X82322936Y-125195000D01*
X82777064Y-123725000D02*
X82322936Y-123725000D01*
%TO.C,R307*%
X82777064Y-123163000D02*
X82322936Y-123163000D01*
X82777064Y-121693000D02*
X82322936Y-121693000D01*
D12*
%TO.C,Q202*%
X68985000Y-114730000D02*
X68985000Y-113430000D01*
X71945000Y-113080000D02*
X69025000Y-113080000D01*
X71945000Y-112980000D02*
X71945000Y-113080000D01*
X69025000Y-112980000D02*
X71945000Y-112980000D01*
X69025000Y-113080000D02*
X69025000Y-112980000D01*
%TO.C,Q201*%
X56285000Y-114730000D02*
X56285000Y-113430000D01*
X59245000Y-113080000D02*
X56325000Y-113080000D01*
X59245000Y-112980000D02*
X59245000Y-113080000D01*
X56325000Y-112980000D02*
X59245000Y-112980000D01*
X56325000Y-113080000D02*
X56325000Y-112980000D01*
%TO.C,IC202*%
X73805000Y-122190000D02*
X73805000Y-120090000D01*
X78500000Y-119740000D02*
X73900000Y-119740000D01*
X78500000Y-113940000D02*
X78500000Y-119740000D01*
X73900000Y-113940000D02*
X78500000Y-113940000D01*
X73900000Y-119740000D02*
X73900000Y-113940000D01*
%TO.C,IC201*%
X61740000Y-122190000D02*
X61740000Y-120090000D01*
X66435000Y-119740000D02*
X61835000Y-119740000D01*
X66435000Y-113940000D02*
X66435000Y-119740000D01*
X61835000Y-113940000D02*
X66435000Y-113940000D01*
X61835000Y-119740000D02*
X61835000Y-113940000D01*
%TO.C,J301*%
X94140000Y-67130000D02*
X94140000Y-67130000D01*
X94340000Y-67130000D02*
X94340000Y-67130000D01*
D13*
X85340000Y-65280000D02*
X85340000Y-59230000D01*
X85540000Y-65280000D02*
X85340000Y-65280000D01*
X97540000Y-59180000D02*
X87540000Y-59180000D01*
X97540000Y-59230000D02*
X97540000Y-59180000D01*
X97540000Y-65230000D02*
X97540000Y-59230000D01*
X95540000Y-65280000D02*
X97540000Y-65230000D01*
D12*
X94140000Y-67130000D02*
G75*
G03*
X94340000Y-67130000I100000J0D01*
G01*
X94340000Y-67130000D02*
G75*
G03*
X94140000Y-67130000I-100000J0D01*
G01*
%TO.C,J306*%
X94140000Y-124280000D02*
X94140000Y-124280000D01*
X94340000Y-124280000D02*
X94340000Y-124280000D01*
D13*
X85340000Y-122430000D02*
X85340000Y-116380000D01*
X85540000Y-122430000D02*
X85340000Y-122430000D01*
X97540000Y-116330000D02*
X87540000Y-116330000D01*
X97540000Y-116380000D02*
X97540000Y-116330000D01*
X97540000Y-122380000D02*
X97540000Y-116380000D01*
X95540000Y-122430000D02*
X97540000Y-122380000D01*
D12*
X94140000Y-124280000D02*
G75*
G03*
X94340000Y-124280000I100000J0D01*
G01*
X94340000Y-124280000D02*
G75*
G03*
X94140000Y-124280000I-100000J0D01*
G01*
%TO.C,J305*%
X94140000Y-112850000D02*
X94140000Y-112850000D01*
X94340000Y-112850000D02*
X94340000Y-112850000D01*
D13*
X85340000Y-111000000D02*
X85340000Y-104950000D01*
X85540000Y-111000000D02*
X85340000Y-111000000D01*
X97540000Y-104900000D02*
X87540000Y-104900000D01*
X97540000Y-104950000D02*
X97540000Y-104900000D01*
X97540000Y-110950000D02*
X97540000Y-104950000D01*
X95540000Y-111000000D02*
X97540000Y-110950000D01*
D12*
X94140000Y-112850000D02*
G75*
G03*
X94340000Y-112850000I100000J0D01*
G01*
X94340000Y-112850000D02*
G75*
G03*
X94140000Y-112850000I-100000J0D01*
G01*
%TO.C,J304*%
X94140000Y-101420000D02*
X94140000Y-101420000D01*
X94340000Y-101420000D02*
X94340000Y-101420000D01*
D13*
X85340000Y-99570000D02*
X85340000Y-93520000D01*
X85540000Y-99570000D02*
X85340000Y-99570000D01*
X97540000Y-93470000D02*
X87540000Y-93470000D01*
X97540000Y-93520000D02*
X97540000Y-93470000D01*
X97540000Y-99520000D02*
X97540000Y-93520000D01*
X95540000Y-99570000D02*
X97540000Y-99520000D01*
D12*
X94140000Y-101420000D02*
G75*
G03*
X94340000Y-101420000I100000J0D01*
G01*
X94340000Y-101420000D02*
G75*
G03*
X94140000Y-101420000I-100000J0D01*
G01*
%TO.C,J303*%
X94140000Y-89990000D02*
X94140000Y-89990000D01*
X94340000Y-89990000D02*
X94340000Y-89990000D01*
D13*
X85340000Y-88140000D02*
X85340000Y-82090000D01*
X85540000Y-88140000D02*
X85340000Y-88140000D01*
X97540000Y-82040000D02*
X87540000Y-82040000D01*
X97540000Y-82090000D02*
X97540000Y-82040000D01*
X97540000Y-88090000D02*
X97540000Y-82090000D01*
X95540000Y-88140000D02*
X97540000Y-88090000D01*
D12*
X94140000Y-89990000D02*
G75*
G03*
X94340000Y-89990000I100000J0D01*
G01*
X94340000Y-89990000D02*
G75*
G03*
X94140000Y-89990000I-100000J0D01*
G01*
%TO.C,J302*%
X94140000Y-78560000D02*
X94140000Y-78560000D01*
X94340000Y-78560000D02*
X94340000Y-78560000D01*
D13*
X85340000Y-76710000D02*
X85340000Y-70660000D01*
X85540000Y-76710000D02*
X85340000Y-76710000D01*
X97540000Y-70610000D02*
X87540000Y-70610000D01*
X97540000Y-70660000D02*
X97540000Y-70610000D01*
X97540000Y-76660000D02*
X97540000Y-70660000D01*
X95540000Y-76710000D02*
X97540000Y-76660000D01*
D12*
X94140000Y-78560000D02*
G75*
G03*
X94340000Y-78560000I100000J0D01*
G01*
X94340000Y-78560000D02*
G75*
G03*
X94140000Y-78560000I-100000J0D01*
G01*
D11*
%TO.C,C302*%
X86005000Y-130530000D02*
X87205000Y-130530000D01*
X90525000Y-130530000D02*
X89325000Y-130530000D01*
X90525000Y-127074437D02*
X90525000Y-130530000D01*
X86005000Y-127074437D02*
X86005000Y-130530000D01*
X87069437Y-126010000D02*
X87205000Y-126010000D01*
X89460563Y-126010000D02*
X89325000Y-126010000D01*
X89460563Y-126010000D02*
X90525000Y-127074437D01*
X87069437Y-126010000D02*
X86005000Y-127074437D01*
X89825000Y-125270000D02*
X89825000Y-125770000D01*
X90075000Y-125520000D02*
X89575000Y-125520000D01*
%TO.C,C103*%
X61295000Y-81510000D02*
X61295000Y-85420000D01*
X63165000Y-81510000D02*
X61295000Y-81510000D01*
X63165000Y-85420000D02*
X63165000Y-81510000D01*
%TO.C,R312*%
X82777064Y-131853000D02*
X82322936Y-131853000D01*
X82777064Y-133323000D02*
X82322936Y-133323000D01*
%TO.C,R311*%
X82777064Y-129821000D02*
X82322936Y-129821000D01*
X82777064Y-131291000D02*
X82322936Y-131291000D01*
%TO.C,R306*%
X82777064Y-119661000D02*
X82322936Y-119661000D01*
X82777064Y-121131000D02*
X82322936Y-121131000D01*
%TO.C,R305*%
X82777064Y-117629000D02*
X82322936Y-117629000D01*
X82777064Y-119099000D02*
X82322936Y-119099000D01*
%TO.C,R304*%
X82777064Y-115597000D02*
X82322936Y-115597000D01*
X82777064Y-117067000D02*
X82322936Y-117067000D01*
%TO.C,R303*%
X82777064Y-113565000D02*
X82322936Y-113565000D01*
X82777064Y-115035000D02*
X82322936Y-115035000D01*
%TO.C,R302*%
X82777064Y-111533000D02*
X82322936Y-111533000D01*
X82777064Y-113003000D02*
X82322936Y-113003000D01*
%TO.C,C107*%
X72156250Y-84118750D02*
X72156250Y-84906250D01*
X71762500Y-84512500D02*
X72550000Y-84512500D01*
X72790000Y-88705563D02*
X73854437Y-89770000D01*
X72790000Y-84014437D02*
X73854437Y-82950000D01*
X72790000Y-84014437D02*
X72790000Y-85300000D01*
X72790000Y-88705563D02*
X72790000Y-87420000D01*
X73854437Y-89770000D02*
X79610000Y-89770000D01*
X73854437Y-82950000D02*
X79610000Y-82950000D01*
X79610000Y-82950000D02*
X79610000Y-85300000D01*
X79610000Y-89770000D02*
X79610000Y-87420000D01*
%TO.C,J102*%
X96580000Y-56575000D02*
X96580000Y-53915000D01*
X91440000Y-56575000D02*
X96580000Y-56575000D01*
X91440000Y-53915000D02*
X96580000Y-53915000D01*
X91440000Y-56575000D02*
X91440000Y-53915000D01*
X90170000Y-56575000D02*
X88840000Y-56575000D01*
X88840000Y-56575000D02*
X88840000Y-55245000D01*
%TO.C,C104*%
X69570000Y-92990000D02*
X68370000Y-92990000D01*
X65050000Y-92990000D02*
X66250000Y-92990000D01*
X65050000Y-96445563D02*
X65050000Y-92990000D01*
X69570000Y-96445563D02*
X69570000Y-92990000D01*
X68505563Y-97510000D02*
X68370000Y-97510000D01*
X66114437Y-97510000D02*
X66250000Y-97510000D01*
X66114437Y-97510000D02*
X65050000Y-96445563D01*
X68505563Y-97510000D02*
X69570000Y-96445563D01*
X65750000Y-98250000D02*
X65750000Y-97750000D01*
X65500000Y-98000000D02*
X66000000Y-98000000D01*
%TO.C,R101*%
X66575000Y-102462064D02*
X66575000Y-102007936D01*
X68045000Y-102462064D02*
X68045000Y-102007936D01*
%TO.C,C106*%
X67048748Y-85625000D02*
X67571252Y-85625000D01*
X67048748Y-87095000D02*
X67571252Y-87095000D01*
%TO.C,C105*%
X60225000Y-95511252D02*
X60225000Y-94988748D01*
X61695000Y-95511252D02*
X61695000Y-94988748D01*
%TO.C,C101*%
X71655000Y-102496252D02*
X71655000Y-101973748D01*
X73125000Y-102496252D02*
X73125000Y-101973748D01*
%TO.C,C102*%
X67048748Y-81815000D02*
X67571252Y-81815000D01*
X67048748Y-83285000D02*
X67571252Y-83285000D01*
%TO.C,U102*%
X79610000Y-93340000D02*
X78350000Y-93340000D01*
X72790000Y-93340000D02*
X74050000Y-93340000D01*
X79610000Y-97100000D02*
X79610000Y-93340000D01*
X72790000Y-99350000D02*
X72790000Y-93340000D01*
%TO.C,SW101*%
X63890000Y-106500000D02*
X64340000Y-106050000D01*
X63890000Y-103100000D02*
X64340000Y-103550000D01*
X59290000Y-103100000D02*
X58840000Y-103550000D01*
X59290000Y-106500000D02*
X58840000Y-106050000D01*
X60590000Y-102050000D02*
X62590000Y-102050000D01*
X64340000Y-106050000D02*
X64340000Y-103550000D01*
X60590000Y-107550000D02*
X62590000Y-107550000D01*
X58840000Y-106050000D02*
X58840000Y-103550000D01*
%TO.C,SW102*%
X80410000Y-106450000D02*
X80860000Y-106000000D01*
X80410000Y-103050000D02*
X80860000Y-103500000D01*
X75810000Y-103050000D02*
X75360000Y-103500000D01*
X75810000Y-106450000D02*
X75360000Y-106000000D01*
X77110000Y-102000000D02*
X79110000Y-102000000D01*
X80860000Y-106000000D02*
X80860000Y-103500000D01*
X77110000Y-107500000D02*
X79110000Y-107500000D01*
X75360000Y-106000000D02*
X75360000Y-103500000D01*
%TO.C,R301*%
X82777064Y-110971000D02*
X82322936Y-110971000D01*
X82777064Y-109501000D02*
X82322936Y-109501000D01*
%TO.C,C301*%
X93718748Y-130075000D02*
X94241252Y-130075000D01*
X93718748Y-131545000D02*
X94241252Y-131545000D01*
%TO.C,D202*%
X72650000Y-124850000D02*
X78350000Y-124850000D01*
X72650000Y-129150000D02*
X78350000Y-129150000D01*
X72650000Y-124850000D02*
X72650000Y-129150000D01*
%TO.C,D201*%
X59950000Y-124850000D02*
X65650000Y-124850000D01*
X59950000Y-129150000D02*
X65650000Y-129150000D01*
X59950000Y-124850000D02*
X59950000Y-129150000D01*
%TO.C,R204*%
X70712064Y-118845000D02*
X70257936Y-118845000D01*
X70712064Y-117375000D02*
X70257936Y-117375000D01*
%TO.C,R206*%
X70257936Y-121185000D02*
X70712064Y-121185000D01*
X70257936Y-122655000D02*
X70712064Y-122655000D01*
%TO.C,R205*%
X70585000Y-127227064D02*
X70585000Y-126772936D01*
X69115000Y-127227064D02*
X69115000Y-126772936D01*
%TO.C,R201*%
X58012064Y-118845000D02*
X57557936Y-118845000D01*
X58012064Y-117375000D02*
X57557936Y-117375000D01*
%TO.C,R203*%
X57557936Y-121185000D02*
X58012064Y-121185000D01*
X57557936Y-122655000D02*
X58012064Y-122655000D01*
%TO.C,R202*%
X56415000Y-127227064D02*
X56415000Y-126772936D01*
X57885000Y-127227064D02*
X57885000Y-126772936D01*
%TO.C,J202*%
X78740000Y-138430000D02*
X68580000Y-138430000D01*
X78740000Y-139700000D02*
X78740000Y-132080000D01*
X78740000Y-132080000D02*
X68580000Y-132080000D01*
X68580000Y-132080000D02*
X68580000Y-139700000D01*
X68580000Y-139700000D02*
X78740000Y-139700000D01*
%TO.C,J201*%
X66040000Y-138430000D02*
X55880000Y-138430000D01*
X66040000Y-139700000D02*
X66040000Y-132080000D01*
X66040000Y-132080000D02*
X55880000Y-132080000D01*
X55880000Y-132080000D02*
X55880000Y-139700000D01*
X55880000Y-139700000D02*
X66040000Y-139700000D01*
%TO.C,U101*%
X61035000Y-59770000D02*
X60655000Y-59770000D01*
X61035000Y-53350000D02*
X61035000Y-59770000D01*
X79275000Y-53350000D02*
X79275000Y-59770000D01*
X61035000Y-53350000D02*
X79275000Y-53350000D01*
X79275000Y-79095000D02*
X78275000Y-79095000D01*
X79275000Y-78315000D02*
X79275000Y-79095000D01*
X61035000Y-79095000D02*
X62035000Y-79095000D01*
X61035000Y-78315000D02*
X61035000Y-79095000D01*
%TO.C,U103*%
D14*
X57305877Y-52286124D02*
X57305877Y-53095960D01*
X57353515Y-53191235D01*
X57401152Y-53238873D01*
X57496427Y-53286510D01*
X57686977Y-53286510D01*
X57782251Y-53238873D01*
X57829889Y-53191235D01*
X57877526Y-53095960D01*
X57877526Y-52286124D01*
X58877912Y-53286510D02*
X58306263Y-53286510D01*
X58592088Y-53286510D02*
X58592088Y-52286124D01*
X58496813Y-52429036D01*
X58401538Y-52524311D01*
X58306263Y-52571949D01*
X59497199Y-52286124D02*
X59592474Y-52286124D01*
X59687749Y-52333762D01*
X59735386Y-52381399D01*
X59783023Y-52476674D01*
X59830661Y-52667224D01*
X59830661Y-52905411D01*
X59783023Y-53095960D01*
X59735386Y-53191235D01*
X59687749Y-53238873D01*
X59592474Y-53286510D01*
X59497199Y-53286510D01*
X59401924Y-53238873D01*
X59354287Y-53191235D01*
X59306649Y-53095960D01*
X59259012Y-52905411D01*
X59259012Y-52667224D01*
X59306649Y-52476674D01*
X59354287Y-52381399D01*
X59401924Y-52333762D01*
X59497199Y-52286124D01*
X60164123Y-52286124D02*
X60783409Y-52286124D01*
X60449947Y-52667224D01*
X60592860Y-52667224D01*
X60688135Y-52714861D01*
X60735772Y-52762498D01*
X60783409Y-52857773D01*
X60783409Y-53095960D01*
X60735772Y-53191235D01*
X60688135Y-53238873D01*
X60592860Y-53286510D01*
X60307035Y-53286510D01*
X60211760Y-53238873D01*
X60164123Y-53191235D01*
%TO.C,R314*%
X92860952Y-136850380D02*
X92527619Y-136374190D01*
X92289523Y-136850380D02*
X92289523Y-135850380D01*
X92670476Y-135850380D01*
X92765714Y-135898000D01*
X92813333Y-135945619D01*
X92860952Y-136040857D01*
X92860952Y-136183714D01*
X92813333Y-136278952D01*
X92765714Y-136326571D01*
X92670476Y-136374190D01*
X92289523Y-136374190D01*
X93194285Y-135850380D02*
X93813333Y-135850380D01*
X93480000Y-136231333D01*
X93622857Y-136231333D01*
X93718095Y-136278952D01*
X93765714Y-136326571D01*
X93813333Y-136421809D01*
X93813333Y-136659904D01*
X93765714Y-136755142D01*
X93718095Y-136802761D01*
X93622857Y-136850380D01*
X93337142Y-136850380D01*
X93241904Y-136802761D01*
X93194285Y-136755142D01*
X94765714Y-136850380D02*
X94194285Y-136850380D01*
X94480000Y-136850380D02*
X94480000Y-135850380D01*
X94384761Y-135993238D01*
X94289523Y-136088476D01*
X94194285Y-136136095D01*
X95622857Y-136183714D02*
X95622857Y-136850380D01*
X95384761Y-135802761D02*
X95146666Y-136517047D01*
X95765714Y-136517047D01*
%TO.C,R313*%
X92860952Y-129102380D02*
X92527619Y-128626190D01*
X92289523Y-129102380D02*
X92289523Y-128102380D01*
X92670476Y-128102380D01*
X92765714Y-128150000D01*
X92813333Y-128197619D01*
X92860952Y-128292857D01*
X92860952Y-128435714D01*
X92813333Y-128530952D01*
X92765714Y-128578571D01*
X92670476Y-128626190D01*
X92289523Y-128626190D01*
X93194285Y-128102380D02*
X93813333Y-128102380D01*
X93480000Y-128483333D01*
X93622857Y-128483333D01*
X93718095Y-128530952D01*
X93765714Y-128578571D01*
X93813333Y-128673809D01*
X93813333Y-128911904D01*
X93765714Y-129007142D01*
X93718095Y-129054761D01*
X93622857Y-129102380D01*
X93337142Y-129102380D01*
X93241904Y-129054761D01*
X93194285Y-129007142D01*
X94765714Y-129102380D02*
X94194285Y-129102380D01*
X94480000Y-129102380D02*
X94480000Y-128102380D01*
X94384761Y-128245238D01*
X94289523Y-128340476D01*
X94194285Y-128388095D01*
X95099047Y-128102380D02*
X95718095Y-128102380D01*
X95384761Y-128483333D01*
X95527619Y-128483333D01*
X95622857Y-128530952D01*
X95670476Y-128578571D01*
X95718095Y-128673809D01*
X95718095Y-128911904D01*
X95670476Y-129007142D01*
X95622857Y-129054761D01*
X95527619Y-129102380D01*
X95241904Y-129102380D01*
X95146666Y-129054761D01*
X95099047Y-129007142D01*
%TO.C,R310*%
D13*
X80879904Y-129419238D02*
X80498952Y-129685904D01*
X80879904Y-129876380D02*
X80079904Y-129876380D01*
X80079904Y-129571619D01*
X80118000Y-129495428D01*
X80156095Y-129457333D01*
X80232285Y-129419238D01*
X80346571Y-129419238D01*
X80422761Y-129457333D01*
X80460857Y-129495428D01*
X80498952Y-129571619D01*
X80498952Y-129876380D01*
X80079904Y-129152571D02*
X80079904Y-128657333D01*
X80384666Y-128924000D01*
X80384666Y-128809714D01*
X80422761Y-128733523D01*
X80460857Y-128695428D01*
X80537047Y-128657333D01*
X80727523Y-128657333D01*
X80803714Y-128695428D01*
X80841809Y-128733523D01*
X80879904Y-128809714D01*
X80879904Y-129038285D01*
X80841809Y-129114476D01*
X80803714Y-129152571D01*
X80879904Y-127895428D02*
X80879904Y-128352571D01*
X80879904Y-128124000D02*
X80079904Y-128124000D01*
X80194190Y-128200190D01*
X80270380Y-128276380D01*
X80308476Y-128352571D01*
X80079904Y-127400190D02*
X80079904Y-127324000D01*
X80118000Y-127247809D01*
X80156095Y-127209714D01*
X80232285Y-127171619D01*
X80384666Y-127133523D01*
X80575142Y-127133523D01*
X80727523Y-127171619D01*
X80803714Y-127209714D01*
X80841809Y-127247809D01*
X80879904Y-127324000D01*
X80879904Y-127400190D01*
X80841809Y-127476380D01*
X80803714Y-127514476D01*
X80727523Y-127552571D01*
X80575142Y-127590666D01*
X80384666Y-127590666D01*
X80232285Y-127552571D01*
X80156095Y-127514476D01*
X80118000Y-127476380D01*
X80079904Y-127400190D01*
%TO.C,R309*%
X85197904Y-127387238D02*
X84816952Y-127653904D01*
X85197904Y-127844380D02*
X84397904Y-127844380D01*
X84397904Y-127539619D01*
X84436000Y-127463428D01*
X84474095Y-127425333D01*
X84550285Y-127387238D01*
X84664571Y-127387238D01*
X84740761Y-127425333D01*
X84778857Y-127463428D01*
X84816952Y-127539619D01*
X84816952Y-127844380D01*
X84397904Y-127120571D02*
X84397904Y-126625333D01*
X84702666Y-126892000D01*
X84702666Y-126777714D01*
X84740761Y-126701523D01*
X84778857Y-126663428D01*
X84855047Y-126625333D01*
X85045523Y-126625333D01*
X85121714Y-126663428D01*
X85159809Y-126701523D01*
X85197904Y-126777714D01*
X85197904Y-127006285D01*
X85159809Y-127082476D01*
X85121714Y-127120571D01*
X84397904Y-126130095D02*
X84397904Y-126053904D01*
X84436000Y-125977714D01*
X84474095Y-125939619D01*
X84550285Y-125901523D01*
X84702666Y-125863428D01*
X84893142Y-125863428D01*
X85045523Y-125901523D01*
X85121714Y-125939619D01*
X85159809Y-125977714D01*
X85197904Y-126053904D01*
X85197904Y-126130095D01*
X85159809Y-126206285D01*
X85121714Y-126244380D01*
X85045523Y-126282476D01*
X84893142Y-126320571D01*
X84702666Y-126320571D01*
X84550285Y-126282476D01*
X84474095Y-126244380D01*
X84436000Y-126206285D01*
X84397904Y-126130095D01*
X85197904Y-125482476D02*
X85197904Y-125330095D01*
X85159809Y-125253904D01*
X85121714Y-125215809D01*
X85007428Y-125139619D01*
X84855047Y-125101523D01*
X84550285Y-125101523D01*
X84474095Y-125139619D01*
X84436000Y-125177714D01*
X84397904Y-125253904D01*
X84397904Y-125406285D01*
X84436000Y-125482476D01*
X84474095Y-125520571D01*
X84550285Y-125558666D01*
X84740761Y-125558666D01*
X84816952Y-125520571D01*
X84855047Y-125482476D01*
X84893142Y-125406285D01*
X84893142Y-125253904D01*
X84855047Y-125177714D01*
X84816952Y-125139619D01*
X84740761Y-125101523D01*
%TO.C,R308*%
X80879904Y-125355238D02*
X80498952Y-125621904D01*
X80879904Y-125812380D02*
X80079904Y-125812380D01*
X80079904Y-125507619D01*
X80118000Y-125431428D01*
X80156095Y-125393333D01*
X80232285Y-125355238D01*
X80346571Y-125355238D01*
X80422761Y-125393333D01*
X80460857Y-125431428D01*
X80498952Y-125507619D01*
X80498952Y-125812380D01*
X80079904Y-125088571D02*
X80079904Y-124593333D01*
X80384666Y-124860000D01*
X80384666Y-124745714D01*
X80422761Y-124669523D01*
X80460857Y-124631428D01*
X80537047Y-124593333D01*
X80727523Y-124593333D01*
X80803714Y-124631428D01*
X80841809Y-124669523D01*
X80879904Y-124745714D01*
X80879904Y-124974285D01*
X80841809Y-125050476D01*
X80803714Y-125088571D01*
X80079904Y-124098095D02*
X80079904Y-124021904D01*
X80118000Y-123945714D01*
X80156095Y-123907619D01*
X80232285Y-123869523D01*
X80384666Y-123831428D01*
X80575142Y-123831428D01*
X80727523Y-123869523D01*
X80803714Y-123907619D01*
X80841809Y-123945714D01*
X80879904Y-124021904D01*
X80879904Y-124098095D01*
X80841809Y-124174285D01*
X80803714Y-124212380D01*
X80727523Y-124250476D01*
X80575142Y-124288571D01*
X80384666Y-124288571D01*
X80232285Y-124250476D01*
X80156095Y-124212380D01*
X80118000Y-124174285D01*
X80079904Y-124098095D01*
X80422761Y-123374285D02*
X80384666Y-123450476D01*
X80346571Y-123488571D01*
X80270380Y-123526666D01*
X80232285Y-123526666D01*
X80156095Y-123488571D01*
X80118000Y-123450476D01*
X80079904Y-123374285D01*
X80079904Y-123221904D01*
X80118000Y-123145714D01*
X80156095Y-123107619D01*
X80232285Y-123069523D01*
X80270380Y-123069523D01*
X80346571Y-123107619D01*
X80384666Y-123145714D01*
X80422761Y-123221904D01*
X80422761Y-123374285D01*
X80460857Y-123450476D01*
X80498952Y-123488571D01*
X80575142Y-123526666D01*
X80727523Y-123526666D01*
X80803714Y-123488571D01*
X80841809Y-123450476D01*
X80879904Y-123374285D01*
X80879904Y-123221904D01*
X80841809Y-123145714D01*
X80803714Y-123107619D01*
X80727523Y-123069523D01*
X80575142Y-123069523D01*
X80498952Y-123107619D01*
X80460857Y-123145714D01*
X80422761Y-123221904D01*
%TO.C,R307*%
X85197904Y-123323238D02*
X84816952Y-123589904D01*
X85197904Y-123780380D02*
X84397904Y-123780380D01*
X84397904Y-123475619D01*
X84436000Y-123399428D01*
X84474095Y-123361333D01*
X84550285Y-123323238D01*
X84664571Y-123323238D01*
X84740761Y-123361333D01*
X84778857Y-123399428D01*
X84816952Y-123475619D01*
X84816952Y-123780380D01*
X84397904Y-123056571D02*
X84397904Y-122561333D01*
X84702666Y-122828000D01*
X84702666Y-122713714D01*
X84740761Y-122637523D01*
X84778857Y-122599428D01*
X84855047Y-122561333D01*
X85045523Y-122561333D01*
X85121714Y-122599428D01*
X85159809Y-122637523D01*
X85197904Y-122713714D01*
X85197904Y-122942285D01*
X85159809Y-123018476D01*
X85121714Y-123056571D01*
X84397904Y-122066095D02*
X84397904Y-121989904D01*
X84436000Y-121913714D01*
X84474095Y-121875619D01*
X84550285Y-121837523D01*
X84702666Y-121799428D01*
X84893142Y-121799428D01*
X85045523Y-121837523D01*
X85121714Y-121875619D01*
X85159809Y-121913714D01*
X85197904Y-121989904D01*
X85197904Y-122066095D01*
X85159809Y-122142285D01*
X85121714Y-122180380D01*
X85045523Y-122218476D01*
X84893142Y-122256571D01*
X84702666Y-122256571D01*
X84550285Y-122218476D01*
X84474095Y-122180380D01*
X84436000Y-122142285D01*
X84397904Y-122066095D01*
X84397904Y-121532761D02*
X84397904Y-120999428D01*
X85197904Y-121342285D01*
%TO.C,Q202*%
D15*
X69154523Y-116519476D02*
X69033571Y-116459000D01*
X68912619Y-116338047D01*
X68731190Y-116156619D01*
X68610238Y-116096142D01*
X68489285Y-116096142D01*
X68549761Y-116398523D02*
X68428809Y-116338047D01*
X68307857Y-116217095D01*
X68247380Y-115975190D01*
X68247380Y-115551857D01*
X68307857Y-115309952D01*
X68428809Y-115189000D01*
X68549761Y-115128523D01*
X68791666Y-115128523D01*
X68912619Y-115189000D01*
X69033571Y-115309952D01*
X69094047Y-115551857D01*
X69094047Y-115975190D01*
X69033571Y-116217095D01*
X68912619Y-116338047D01*
X68791666Y-116398523D01*
X68549761Y-116398523D01*
X69577857Y-115249476D02*
X69638333Y-115189000D01*
X69759285Y-115128523D01*
X70061666Y-115128523D01*
X70182619Y-115189000D01*
X70243095Y-115249476D01*
X70303571Y-115370428D01*
X70303571Y-115491380D01*
X70243095Y-115672809D01*
X69517380Y-116398523D01*
X70303571Y-116398523D01*
X71089761Y-115128523D02*
X71210714Y-115128523D01*
X71331666Y-115189000D01*
X71392142Y-115249476D01*
X71452619Y-115370428D01*
X71513095Y-115612333D01*
X71513095Y-115914714D01*
X71452619Y-116156619D01*
X71392142Y-116277571D01*
X71331666Y-116338047D01*
X71210714Y-116398523D01*
X71089761Y-116398523D01*
X70968809Y-116338047D01*
X70908333Y-116277571D01*
X70847857Y-116156619D01*
X70787380Y-115914714D01*
X70787380Y-115612333D01*
X70847857Y-115370428D01*
X70908333Y-115249476D01*
X70968809Y-115189000D01*
X71089761Y-115128523D01*
X71996904Y-115249476D02*
X72057380Y-115189000D01*
X72178333Y-115128523D01*
X72480714Y-115128523D01*
X72601666Y-115189000D01*
X72662142Y-115249476D01*
X72722619Y-115370428D01*
X72722619Y-115491380D01*
X72662142Y-115672809D01*
X71936428Y-116398523D01*
X72722619Y-116398523D01*
%TO.C,Q201*%
X56454523Y-116519476D02*
X56333571Y-116459000D01*
X56212619Y-116338047D01*
X56031190Y-116156619D01*
X55910238Y-116096142D01*
X55789285Y-116096142D01*
X55849761Y-116398523D02*
X55728809Y-116338047D01*
X55607857Y-116217095D01*
X55547380Y-115975190D01*
X55547380Y-115551857D01*
X55607857Y-115309952D01*
X55728809Y-115189000D01*
X55849761Y-115128523D01*
X56091666Y-115128523D01*
X56212619Y-115189000D01*
X56333571Y-115309952D01*
X56394047Y-115551857D01*
X56394047Y-115975190D01*
X56333571Y-116217095D01*
X56212619Y-116338047D01*
X56091666Y-116398523D01*
X55849761Y-116398523D01*
X56877857Y-115249476D02*
X56938333Y-115189000D01*
X57059285Y-115128523D01*
X57361666Y-115128523D01*
X57482619Y-115189000D01*
X57543095Y-115249476D01*
X57603571Y-115370428D01*
X57603571Y-115491380D01*
X57543095Y-115672809D01*
X56817380Y-116398523D01*
X57603571Y-116398523D01*
X58389761Y-115128523D02*
X58510714Y-115128523D01*
X58631666Y-115189000D01*
X58692142Y-115249476D01*
X58752619Y-115370428D01*
X58813095Y-115612333D01*
X58813095Y-115914714D01*
X58752619Y-116156619D01*
X58692142Y-116277571D01*
X58631666Y-116338047D01*
X58510714Y-116398523D01*
X58389761Y-116398523D01*
X58268809Y-116338047D01*
X58208333Y-116277571D01*
X58147857Y-116156619D01*
X58087380Y-115914714D01*
X58087380Y-115612333D01*
X58147857Y-115370428D01*
X58208333Y-115249476D01*
X58268809Y-115189000D01*
X58389761Y-115128523D01*
X60022619Y-116398523D02*
X59296904Y-116398523D01*
X59659761Y-116398523D02*
X59659761Y-115128523D01*
X59538809Y-115309952D01*
X59417857Y-115430904D01*
X59296904Y-115491380D01*
%TO.C,IC202*%
X73750714Y-124018523D02*
X73750714Y-122748523D01*
X75081190Y-123897571D02*
X75020714Y-123958047D01*
X74839285Y-124018523D01*
X74718333Y-124018523D01*
X74536904Y-123958047D01*
X74415952Y-123837095D01*
X74355476Y-123716142D01*
X74295000Y-123474238D01*
X74295000Y-123292809D01*
X74355476Y-123050904D01*
X74415952Y-122929952D01*
X74536904Y-122809000D01*
X74718333Y-122748523D01*
X74839285Y-122748523D01*
X75020714Y-122809000D01*
X75081190Y-122869476D01*
X75565000Y-122869476D02*
X75625476Y-122809000D01*
X75746428Y-122748523D01*
X76048809Y-122748523D01*
X76169761Y-122809000D01*
X76230238Y-122869476D01*
X76290714Y-122990428D01*
X76290714Y-123111380D01*
X76230238Y-123292809D01*
X75504523Y-124018523D01*
X76290714Y-124018523D01*
X77076904Y-122748523D02*
X77197857Y-122748523D01*
X77318809Y-122809000D01*
X77379285Y-122869476D01*
X77439761Y-122990428D01*
X77500238Y-123232333D01*
X77500238Y-123534714D01*
X77439761Y-123776619D01*
X77379285Y-123897571D01*
X77318809Y-123958047D01*
X77197857Y-124018523D01*
X77076904Y-124018523D01*
X76955952Y-123958047D01*
X76895476Y-123897571D01*
X76835000Y-123776619D01*
X76774523Y-123534714D01*
X76774523Y-123232333D01*
X76835000Y-122990428D01*
X76895476Y-122869476D01*
X76955952Y-122809000D01*
X77076904Y-122748523D01*
X77984047Y-122869476D02*
X78044523Y-122809000D01*
X78165476Y-122748523D01*
X78467857Y-122748523D01*
X78588809Y-122809000D01*
X78649285Y-122869476D01*
X78709761Y-122990428D01*
X78709761Y-123111380D01*
X78649285Y-123292809D01*
X77923571Y-124018523D01*
X78709761Y-124018523D01*
%TO.C,IC201*%
X61685714Y-124018523D02*
X61685714Y-122748523D01*
X63016190Y-123897571D02*
X62955714Y-123958047D01*
X62774285Y-124018523D01*
X62653333Y-124018523D01*
X62471904Y-123958047D01*
X62350952Y-123837095D01*
X62290476Y-123716142D01*
X62230000Y-123474238D01*
X62230000Y-123292809D01*
X62290476Y-123050904D01*
X62350952Y-122929952D01*
X62471904Y-122809000D01*
X62653333Y-122748523D01*
X62774285Y-122748523D01*
X62955714Y-122809000D01*
X63016190Y-122869476D01*
X63500000Y-122869476D02*
X63560476Y-122809000D01*
X63681428Y-122748523D01*
X63983809Y-122748523D01*
X64104761Y-122809000D01*
X64165238Y-122869476D01*
X64225714Y-122990428D01*
X64225714Y-123111380D01*
X64165238Y-123292809D01*
X63439523Y-124018523D01*
X64225714Y-124018523D01*
X65011904Y-122748523D02*
X65132857Y-122748523D01*
X65253809Y-122809000D01*
X65314285Y-122869476D01*
X65374761Y-122990428D01*
X65435238Y-123232333D01*
X65435238Y-123534714D01*
X65374761Y-123776619D01*
X65314285Y-123897571D01*
X65253809Y-123958047D01*
X65132857Y-124018523D01*
X65011904Y-124018523D01*
X64890952Y-123958047D01*
X64830476Y-123897571D01*
X64770000Y-123776619D01*
X64709523Y-123534714D01*
X64709523Y-123232333D01*
X64770000Y-122990428D01*
X64830476Y-122869476D01*
X64890952Y-122809000D01*
X65011904Y-122748523D01*
X66644761Y-124018523D02*
X65919047Y-124018523D01*
X66281904Y-124018523D02*
X66281904Y-122748523D01*
X66160952Y-122929952D01*
X66040000Y-123050904D01*
X65919047Y-123111380D01*
%TO.C,J301*%
X90442142Y-61534523D02*
X90442142Y-62441666D01*
X90381666Y-62623095D01*
X90260714Y-62744047D01*
X90079285Y-62804523D01*
X89958333Y-62804523D01*
X90925952Y-61534523D02*
X91712142Y-61534523D01*
X91288809Y-62018333D01*
X91470238Y-62018333D01*
X91591190Y-62078809D01*
X91651666Y-62139285D01*
X91712142Y-62260238D01*
X91712142Y-62562619D01*
X91651666Y-62683571D01*
X91591190Y-62744047D01*
X91470238Y-62804523D01*
X91107380Y-62804523D01*
X90986428Y-62744047D01*
X90925952Y-62683571D01*
X92498333Y-61534523D02*
X92619285Y-61534523D01*
X92740238Y-61595000D01*
X92800714Y-61655476D01*
X92861190Y-61776428D01*
X92921666Y-62018333D01*
X92921666Y-62320714D01*
X92861190Y-62562619D01*
X92800714Y-62683571D01*
X92740238Y-62744047D01*
X92619285Y-62804523D01*
X92498333Y-62804523D01*
X92377380Y-62744047D01*
X92316904Y-62683571D01*
X92256428Y-62562619D01*
X92195952Y-62320714D01*
X92195952Y-62018333D01*
X92256428Y-61776428D01*
X92316904Y-61655476D01*
X92377380Y-61595000D01*
X92498333Y-61534523D01*
X94131190Y-62804523D02*
X93405476Y-62804523D01*
X93768333Y-62804523D02*
X93768333Y-61534523D01*
X93647380Y-61715952D01*
X93526428Y-61836904D01*
X93405476Y-61897380D01*
%TO.C,J306*%
X90442142Y-118684523D02*
X90442142Y-119591666D01*
X90381666Y-119773095D01*
X90260714Y-119894047D01*
X90079285Y-119954523D01*
X89958333Y-119954523D01*
X90925952Y-118684523D02*
X91712142Y-118684523D01*
X91288809Y-119168333D01*
X91470238Y-119168333D01*
X91591190Y-119228809D01*
X91651666Y-119289285D01*
X91712142Y-119410238D01*
X91712142Y-119712619D01*
X91651666Y-119833571D01*
X91591190Y-119894047D01*
X91470238Y-119954523D01*
X91107380Y-119954523D01*
X90986428Y-119894047D01*
X90925952Y-119833571D01*
X92498333Y-118684523D02*
X92619285Y-118684523D01*
X92740238Y-118745000D01*
X92800714Y-118805476D01*
X92861190Y-118926428D01*
X92921666Y-119168333D01*
X92921666Y-119470714D01*
X92861190Y-119712619D01*
X92800714Y-119833571D01*
X92740238Y-119894047D01*
X92619285Y-119954523D01*
X92498333Y-119954523D01*
X92377380Y-119894047D01*
X92316904Y-119833571D01*
X92256428Y-119712619D01*
X92195952Y-119470714D01*
X92195952Y-119168333D01*
X92256428Y-118926428D01*
X92316904Y-118805476D01*
X92377380Y-118745000D01*
X92498333Y-118684523D01*
X94010238Y-118684523D02*
X93768333Y-118684523D01*
X93647380Y-118745000D01*
X93586904Y-118805476D01*
X93465952Y-118986904D01*
X93405476Y-119228809D01*
X93405476Y-119712619D01*
X93465952Y-119833571D01*
X93526428Y-119894047D01*
X93647380Y-119954523D01*
X93889285Y-119954523D01*
X94010238Y-119894047D01*
X94070714Y-119833571D01*
X94131190Y-119712619D01*
X94131190Y-119410238D01*
X94070714Y-119289285D01*
X94010238Y-119228809D01*
X93889285Y-119168333D01*
X93647380Y-119168333D01*
X93526428Y-119228809D01*
X93465952Y-119289285D01*
X93405476Y-119410238D01*
%TO.C,J305*%
X90442142Y-107254523D02*
X90442142Y-108161666D01*
X90381666Y-108343095D01*
X90260714Y-108464047D01*
X90079285Y-108524523D01*
X89958333Y-108524523D01*
X90925952Y-107254523D02*
X91712142Y-107254523D01*
X91288809Y-107738333D01*
X91470238Y-107738333D01*
X91591190Y-107798809D01*
X91651666Y-107859285D01*
X91712142Y-107980238D01*
X91712142Y-108282619D01*
X91651666Y-108403571D01*
X91591190Y-108464047D01*
X91470238Y-108524523D01*
X91107380Y-108524523D01*
X90986428Y-108464047D01*
X90925952Y-108403571D01*
X92498333Y-107254523D02*
X92619285Y-107254523D01*
X92740238Y-107315000D01*
X92800714Y-107375476D01*
X92861190Y-107496428D01*
X92921666Y-107738333D01*
X92921666Y-108040714D01*
X92861190Y-108282619D01*
X92800714Y-108403571D01*
X92740238Y-108464047D01*
X92619285Y-108524523D01*
X92498333Y-108524523D01*
X92377380Y-108464047D01*
X92316904Y-108403571D01*
X92256428Y-108282619D01*
X92195952Y-108040714D01*
X92195952Y-107738333D01*
X92256428Y-107496428D01*
X92316904Y-107375476D01*
X92377380Y-107315000D01*
X92498333Y-107254523D01*
X94070714Y-107254523D02*
X93465952Y-107254523D01*
X93405476Y-107859285D01*
X93465952Y-107798809D01*
X93586904Y-107738333D01*
X93889285Y-107738333D01*
X94010238Y-107798809D01*
X94070714Y-107859285D01*
X94131190Y-107980238D01*
X94131190Y-108282619D01*
X94070714Y-108403571D01*
X94010238Y-108464047D01*
X93889285Y-108524523D01*
X93586904Y-108524523D01*
X93465952Y-108464047D01*
X93405476Y-108403571D01*
%TO.C,J304*%
X90442142Y-95824523D02*
X90442142Y-96731666D01*
X90381666Y-96913095D01*
X90260714Y-97034047D01*
X90079285Y-97094523D01*
X89958333Y-97094523D01*
X90925952Y-95824523D02*
X91712142Y-95824523D01*
X91288809Y-96308333D01*
X91470238Y-96308333D01*
X91591190Y-96368809D01*
X91651666Y-96429285D01*
X91712142Y-96550238D01*
X91712142Y-96852619D01*
X91651666Y-96973571D01*
X91591190Y-97034047D01*
X91470238Y-97094523D01*
X91107380Y-97094523D01*
X90986428Y-97034047D01*
X90925952Y-96973571D01*
X92498333Y-95824523D02*
X92619285Y-95824523D01*
X92740238Y-95885000D01*
X92800714Y-95945476D01*
X92861190Y-96066428D01*
X92921666Y-96308333D01*
X92921666Y-96610714D01*
X92861190Y-96852619D01*
X92800714Y-96973571D01*
X92740238Y-97034047D01*
X92619285Y-97094523D01*
X92498333Y-97094523D01*
X92377380Y-97034047D01*
X92316904Y-96973571D01*
X92256428Y-96852619D01*
X92195952Y-96610714D01*
X92195952Y-96308333D01*
X92256428Y-96066428D01*
X92316904Y-95945476D01*
X92377380Y-95885000D01*
X92498333Y-95824523D01*
X94010238Y-96247857D02*
X94010238Y-97094523D01*
X93707857Y-95764047D02*
X93405476Y-96671190D01*
X94191666Y-96671190D01*
%TO.C,J303*%
X90442142Y-84394523D02*
X90442142Y-85301666D01*
X90381666Y-85483095D01*
X90260714Y-85604047D01*
X90079285Y-85664523D01*
X89958333Y-85664523D01*
X90925952Y-84394523D02*
X91712142Y-84394523D01*
X91288809Y-84878333D01*
X91470238Y-84878333D01*
X91591190Y-84938809D01*
X91651666Y-84999285D01*
X91712142Y-85120238D01*
X91712142Y-85422619D01*
X91651666Y-85543571D01*
X91591190Y-85604047D01*
X91470238Y-85664523D01*
X91107380Y-85664523D01*
X90986428Y-85604047D01*
X90925952Y-85543571D01*
X92498333Y-84394523D02*
X92619285Y-84394523D01*
X92740238Y-84455000D01*
X92800714Y-84515476D01*
X92861190Y-84636428D01*
X92921666Y-84878333D01*
X92921666Y-85180714D01*
X92861190Y-85422619D01*
X92800714Y-85543571D01*
X92740238Y-85604047D01*
X92619285Y-85664523D01*
X92498333Y-85664523D01*
X92377380Y-85604047D01*
X92316904Y-85543571D01*
X92256428Y-85422619D01*
X92195952Y-85180714D01*
X92195952Y-84878333D01*
X92256428Y-84636428D01*
X92316904Y-84515476D01*
X92377380Y-84455000D01*
X92498333Y-84394523D01*
X93345000Y-84394523D02*
X94131190Y-84394523D01*
X93707857Y-84878333D01*
X93889285Y-84878333D01*
X94010238Y-84938809D01*
X94070714Y-84999285D01*
X94131190Y-85120238D01*
X94131190Y-85422619D01*
X94070714Y-85543571D01*
X94010238Y-85604047D01*
X93889285Y-85664523D01*
X93526428Y-85664523D01*
X93405476Y-85604047D01*
X93345000Y-85543571D01*
%TO.C,J302*%
X90442142Y-72964523D02*
X90442142Y-73871666D01*
X90381666Y-74053095D01*
X90260714Y-74174047D01*
X90079285Y-74234523D01*
X89958333Y-74234523D01*
X90925952Y-72964523D02*
X91712142Y-72964523D01*
X91288809Y-73448333D01*
X91470238Y-73448333D01*
X91591190Y-73508809D01*
X91651666Y-73569285D01*
X91712142Y-73690238D01*
X91712142Y-73992619D01*
X91651666Y-74113571D01*
X91591190Y-74174047D01*
X91470238Y-74234523D01*
X91107380Y-74234523D01*
X90986428Y-74174047D01*
X90925952Y-74113571D01*
X92498333Y-72964523D02*
X92619285Y-72964523D01*
X92740238Y-73025000D01*
X92800714Y-73085476D01*
X92861190Y-73206428D01*
X92921666Y-73448333D01*
X92921666Y-73750714D01*
X92861190Y-73992619D01*
X92800714Y-74113571D01*
X92740238Y-74174047D01*
X92619285Y-74234523D01*
X92498333Y-74234523D01*
X92377380Y-74174047D01*
X92316904Y-74113571D01*
X92256428Y-73992619D01*
X92195952Y-73750714D01*
X92195952Y-73448333D01*
X92256428Y-73206428D01*
X92316904Y-73085476D01*
X92377380Y-73025000D01*
X92498333Y-72964523D01*
X93405476Y-73085476D02*
X93465952Y-73025000D01*
X93586904Y-72964523D01*
X93889285Y-72964523D01*
X94010238Y-73025000D01*
X94070714Y-73085476D01*
X94131190Y-73206428D01*
X94131190Y-73327380D01*
X94070714Y-73508809D01*
X93345000Y-74234523D01*
X94131190Y-74234523D01*
%TO.C,C302*%
D14*
X91822142Y-129389047D02*
X91869761Y-129436666D01*
X91917380Y-129579523D01*
X91917380Y-129674761D01*
X91869761Y-129817619D01*
X91774523Y-129912857D01*
X91679285Y-129960476D01*
X91488809Y-130008095D01*
X91345952Y-130008095D01*
X91155476Y-129960476D01*
X91060238Y-129912857D01*
X90965000Y-129817619D01*
X90917380Y-129674761D01*
X90917380Y-129579523D01*
X90965000Y-129436666D01*
X91012619Y-129389047D01*
X90917380Y-129055714D02*
X90917380Y-128436666D01*
X91298333Y-128770000D01*
X91298333Y-128627142D01*
X91345952Y-128531904D01*
X91393571Y-128484285D01*
X91488809Y-128436666D01*
X91726904Y-128436666D01*
X91822142Y-128484285D01*
X91869761Y-128531904D01*
X91917380Y-128627142D01*
X91917380Y-128912857D01*
X91869761Y-129008095D01*
X91822142Y-129055714D01*
X90917380Y-127817619D02*
X90917380Y-127722380D01*
X90965000Y-127627142D01*
X91012619Y-127579523D01*
X91107857Y-127531904D01*
X91298333Y-127484285D01*
X91536428Y-127484285D01*
X91726904Y-127531904D01*
X91822142Y-127579523D01*
X91869761Y-127627142D01*
X91917380Y-127722380D01*
X91917380Y-127817619D01*
X91869761Y-127912857D01*
X91822142Y-127960476D01*
X91726904Y-128008095D01*
X91536428Y-128055714D01*
X91298333Y-128055714D01*
X91107857Y-128008095D01*
X91012619Y-127960476D01*
X90965000Y-127912857D01*
X90917380Y-127817619D01*
X91012619Y-127103333D02*
X90965000Y-127055714D01*
X90917380Y-126960476D01*
X90917380Y-126722380D01*
X90965000Y-126627142D01*
X91012619Y-126579523D01*
X91107857Y-126531904D01*
X91203095Y-126531904D01*
X91345952Y-126579523D01*
X91917380Y-127150952D01*
X91917380Y-126531904D01*
%TO.C,C103*%
X64337142Y-84939047D02*
X64384761Y-84986666D01*
X64432380Y-85129523D01*
X64432380Y-85224761D01*
X64384761Y-85367619D01*
X64289523Y-85462857D01*
X64194285Y-85510476D01*
X64003809Y-85558095D01*
X63860952Y-85558095D01*
X63670476Y-85510476D01*
X63575238Y-85462857D01*
X63480000Y-85367619D01*
X63432380Y-85224761D01*
X63432380Y-85129523D01*
X63480000Y-84986666D01*
X63527619Y-84939047D01*
X64432380Y-83986666D02*
X64432380Y-84558095D01*
X64432380Y-84272380D02*
X63432380Y-84272380D01*
X63575238Y-84367619D01*
X63670476Y-84462857D01*
X63718095Y-84558095D01*
X63432380Y-83367619D02*
X63432380Y-83272380D01*
X63480000Y-83177142D01*
X63527619Y-83129523D01*
X63622857Y-83081904D01*
X63813333Y-83034285D01*
X64051428Y-83034285D01*
X64241904Y-83081904D01*
X64337142Y-83129523D01*
X64384761Y-83177142D01*
X64432380Y-83272380D01*
X64432380Y-83367619D01*
X64384761Y-83462857D01*
X64337142Y-83510476D01*
X64241904Y-83558095D01*
X64051428Y-83605714D01*
X63813333Y-83605714D01*
X63622857Y-83558095D01*
X63527619Y-83510476D01*
X63480000Y-83462857D01*
X63432380Y-83367619D01*
X63432380Y-82700952D02*
X63432380Y-82081904D01*
X63813333Y-82415238D01*
X63813333Y-82272380D01*
X63860952Y-82177142D01*
X63908571Y-82129523D01*
X64003809Y-82081904D01*
X64241904Y-82081904D01*
X64337142Y-82129523D01*
X64384761Y-82177142D01*
X64432380Y-82272380D01*
X64432380Y-82558095D01*
X64384761Y-82653333D01*
X64337142Y-82700952D01*
%TO.C,R312*%
D13*
X80879904Y-133483238D02*
X80498952Y-133749904D01*
X80879904Y-133940380D02*
X80079904Y-133940380D01*
X80079904Y-133635619D01*
X80118000Y-133559428D01*
X80156095Y-133521333D01*
X80232285Y-133483238D01*
X80346571Y-133483238D01*
X80422761Y-133521333D01*
X80460857Y-133559428D01*
X80498952Y-133635619D01*
X80498952Y-133940380D01*
X80079904Y-133216571D02*
X80079904Y-132721333D01*
X80384666Y-132988000D01*
X80384666Y-132873714D01*
X80422761Y-132797523D01*
X80460857Y-132759428D01*
X80537047Y-132721333D01*
X80727523Y-132721333D01*
X80803714Y-132759428D01*
X80841809Y-132797523D01*
X80879904Y-132873714D01*
X80879904Y-133102285D01*
X80841809Y-133178476D01*
X80803714Y-133216571D01*
X80879904Y-131959428D02*
X80879904Y-132416571D01*
X80879904Y-132188000D02*
X80079904Y-132188000D01*
X80194190Y-132264190D01*
X80270380Y-132340380D01*
X80308476Y-132416571D01*
X80156095Y-131654666D02*
X80118000Y-131616571D01*
X80079904Y-131540380D01*
X80079904Y-131349904D01*
X80118000Y-131273714D01*
X80156095Y-131235619D01*
X80232285Y-131197523D01*
X80308476Y-131197523D01*
X80422761Y-131235619D01*
X80879904Y-131692761D01*
X80879904Y-131197523D01*
%TO.C,R311*%
X85197904Y-131451238D02*
X84816952Y-131717904D01*
X85197904Y-131908380D02*
X84397904Y-131908380D01*
X84397904Y-131603619D01*
X84436000Y-131527428D01*
X84474095Y-131489333D01*
X84550285Y-131451238D01*
X84664571Y-131451238D01*
X84740761Y-131489333D01*
X84778857Y-131527428D01*
X84816952Y-131603619D01*
X84816952Y-131908380D01*
X84397904Y-131184571D02*
X84397904Y-130689333D01*
X84702666Y-130956000D01*
X84702666Y-130841714D01*
X84740761Y-130765523D01*
X84778857Y-130727428D01*
X84855047Y-130689333D01*
X85045523Y-130689333D01*
X85121714Y-130727428D01*
X85159809Y-130765523D01*
X85197904Y-130841714D01*
X85197904Y-131070285D01*
X85159809Y-131146476D01*
X85121714Y-131184571D01*
X85197904Y-129927428D02*
X85197904Y-130384571D01*
X85197904Y-130156000D02*
X84397904Y-130156000D01*
X84512190Y-130232190D01*
X84588380Y-130308380D01*
X84626476Y-130384571D01*
X85197904Y-129165523D02*
X85197904Y-129622666D01*
X85197904Y-129394095D02*
X84397904Y-129394095D01*
X84512190Y-129470285D01*
X84588380Y-129546476D01*
X84626476Y-129622666D01*
%TO.C,R306*%
X80625904Y-121291238D02*
X80244952Y-121557904D01*
X80625904Y-121748380D02*
X79825904Y-121748380D01*
X79825904Y-121443619D01*
X79864000Y-121367428D01*
X79902095Y-121329333D01*
X79978285Y-121291238D01*
X80092571Y-121291238D01*
X80168761Y-121329333D01*
X80206857Y-121367428D01*
X80244952Y-121443619D01*
X80244952Y-121748380D01*
X79825904Y-121024571D02*
X79825904Y-120529333D01*
X80130666Y-120796000D01*
X80130666Y-120681714D01*
X80168761Y-120605523D01*
X80206857Y-120567428D01*
X80283047Y-120529333D01*
X80473523Y-120529333D01*
X80549714Y-120567428D01*
X80587809Y-120605523D01*
X80625904Y-120681714D01*
X80625904Y-120910285D01*
X80587809Y-120986476D01*
X80549714Y-121024571D01*
X79825904Y-120034095D02*
X79825904Y-119957904D01*
X79864000Y-119881714D01*
X79902095Y-119843619D01*
X79978285Y-119805523D01*
X80130666Y-119767428D01*
X80321142Y-119767428D01*
X80473523Y-119805523D01*
X80549714Y-119843619D01*
X80587809Y-119881714D01*
X80625904Y-119957904D01*
X80625904Y-120034095D01*
X80587809Y-120110285D01*
X80549714Y-120148380D01*
X80473523Y-120186476D01*
X80321142Y-120224571D01*
X80130666Y-120224571D01*
X79978285Y-120186476D01*
X79902095Y-120148380D01*
X79864000Y-120110285D01*
X79825904Y-120034095D01*
X79825904Y-119081714D02*
X79825904Y-119234095D01*
X79864000Y-119310285D01*
X79902095Y-119348380D01*
X80016380Y-119424571D01*
X80168761Y-119462666D01*
X80473523Y-119462666D01*
X80549714Y-119424571D01*
X80587809Y-119386476D01*
X80625904Y-119310285D01*
X80625904Y-119157904D01*
X80587809Y-119081714D01*
X80549714Y-119043619D01*
X80473523Y-119005523D01*
X80283047Y-119005523D01*
X80206857Y-119043619D01*
X80168761Y-119081714D01*
X80130666Y-119157904D01*
X80130666Y-119310285D01*
X80168761Y-119386476D01*
X80206857Y-119424571D01*
X80283047Y-119462666D01*
%TO.C,R305*%
X85197904Y-119005238D02*
X84816952Y-119271904D01*
X85197904Y-119462380D02*
X84397904Y-119462380D01*
X84397904Y-119157619D01*
X84436000Y-119081428D01*
X84474095Y-119043333D01*
X84550285Y-119005238D01*
X84664571Y-119005238D01*
X84740761Y-119043333D01*
X84778857Y-119081428D01*
X84816952Y-119157619D01*
X84816952Y-119462380D01*
X84397904Y-118738571D02*
X84397904Y-118243333D01*
X84702666Y-118510000D01*
X84702666Y-118395714D01*
X84740761Y-118319523D01*
X84778857Y-118281428D01*
X84855047Y-118243333D01*
X85045523Y-118243333D01*
X85121714Y-118281428D01*
X85159809Y-118319523D01*
X85197904Y-118395714D01*
X85197904Y-118624285D01*
X85159809Y-118700476D01*
X85121714Y-118738571D01*
X84397904Y-117748095D02*
X84397904Y-117671904D01*
X84436000Y-117595714D01*
X84474095Y-117557619D01*
X84550285Y-117519523D01*
X84702666Y-117481428D01*
X84893142Y-117481428D01*
X85045523Y-117519523D01*
X85121714Y-117557619D01*
X85159809Y-117595714D01*
X85197904Y-117671904D01*
X85197904Y-117748095D01*
X85159809Y-117824285D01*
X85121714Y-117862380D01*
X85045523Y-117900476D01*
X84893142Y-117938571D01*
X84702666Y-117938571D01*
X84550285Y-117900476D01*
X84474095Y-117862380D01*
X84436000Y-117824285D01*
X84397904Y-117748095D01*
X84397904Y-116757619D02*
X84397904Y-117138571D01*
X84778857Y-117176666D01*
X84740761Y-117138571D01*
X84702666Y-117062380D01*
X84702666Y-116871904D01*
X84740761Y-116795714D01*
X84778857Y-116757619D01*
X84855047Y-116719523D01*
X85045523Y-116719523D01*
X85121714Y-116757619D01*
X85159809Y-116795714D01*
X85197904Y-116871904D01*
X85197904Y-117062380D01*
X85159809Y-117138571D01*
X85121714Y-117176666D01*
%TO.C,R304*%
X80625904Y-117227238D02*
X80244952Y-117493904D01*
X80625904Y-117684380D02*
X79825904Y-117684380D01*
X79825904Y-117379619D01*
X79864000Y-117303428D01*
X79902095Y-117265333D01*
X79978285Y-117227238D01*
X80092571Y-117227238D01*
X80168761Y-117265333D01*
X80206857Y-117303428D01*
X80244952Y-117379619D01*
X80244952Y-117684380D01*
X79825904Y-116960571D02*
X79825904Y-116465333D01*
X80130666Y-116732000D01*
X80130666Y-116617714D01*
X80168761Y-116541523D01*
X80206857Y-116503428D01*
X80283047Y-116465333D01*
X80473523Y-116465333D01*
X80549714Y-116503428D01*
X80587809Y-116541523D01*
X80625904Y-116617714D01*
X80625904Y-116846285D01*
X80587809Y-116922476D01*
X80549714Y-116960571D01*
X79825904Y-115970095D02*
X79825904Y-115893904D01*
X79864000Y-115817714D01*
X79902095Y-115779619D01*
X79978285Y-115741523D01*
X80130666Y-115703428D01*
X80321142Y-115703428D01*
X80473523Y-115741523D01*
X80549714Y-115779619D01*
X80587809Y-115817714D01*
X80625904Y-115893904D01*
X80625904Y-115970095D01*
X80587809Y-116046285D01*
X80549714Y-116084380D01*
X80473523Y-116122476D01*
X80321142Y-116160571D01*
X80130666Y-116160571D01*
X79978285Y-116122476D01*
X79902095Y-116084380D01*
X79864000Y-116046285D01*
X79825904Y-115970095D01*
X80092571Y-115017714D02*
X80625904Y-115017714D01*
X79787809Y-115208190D02*
X80359238Y-115398666D01*
X80359238Y-114903428D01*
%TO.C,R303*%
X85197904Y-115195238D02*
X84816952Y-115461904D01*
X85197904Y-115652380D02*
X84397904Y-115652380D01*
X84397904Y-115347619D01*
X84436000Y-115271428D01*
X84474095Y-115233333D01*
X84550285Y-115195238D01*
X84664571Y-115195238D01*
X84740761Y-115233333D01*
X84778857Y-115271428D01*
X84816952Y-115347619D01*
X84816952Y-115652380D01*
X84397904Y-114928571D02*
X84397904Y-114433333D01*
X84702666Y-114700000D01*
X84702666Y-114585714D01*
X84740761Y-114509523D01*
X84778857Y-114471428D01*
X84855047Y-114433333D01*
X85045523Y-114433333D01*
X85121714Y-114471428D01*
X85159809Y-114509523D01*
X85197904Y-114585714D01*
X85197904Y-114814285D01*
X85159809Y-114890476D01*
X85121714Y-114928571D01*
X84397904Y-113938095D02*
X84397904Y-113861904D01*
X84436000Y-113785714D01*
X84474095Y-113747619D01*
X84550285Y-113709523D01*
X84702666Y-113671428D01*
X84893142Y-113671428D01*
X85045523Y-113709523D01*
X85121714Y-113747619D01*
X85159809Y-113785714D01*
X85197904Y-113861904D01*
X85197904Y-113938095D01*
X85159809Y-114014285D01*
X85121714Y-114052380D01*
X85045523Y-114090476D01*
X84893142Y-114128571D01*
X84702666Y-114128571D01*
X84550285Y-114090476D01*
X84474095Y-114052380D01*
X84436000Y-114014285D01*
X84397904Y-113938095D01*
X84397904Y-113404761D02*
X84397904Y-112909523D01*
X84702666Y-113176190D01*
X84702666Y-113061904D01*
X84740761Y-112985714D01*
X84778857Y-112947619D01*
X84855047Y-112909523D01*
X85045523Y-112909523D01*
X85121714Y-112947619D01*
X85159809Y-112985714D01*
X85197904Y-113061904D01*
X85197904Y-113290476D01*
X85159809Y-113366666D01*
X85121714Y-113404761D01*
%TO.C,R302*%
X80625904Y-113163238D02*
X80244952Y-113429904D01*
X80625904Y-113620380D02*
X79825904Y-113620380D01*
X79825904Y-113315619D01*
X79864000Y-113239428D01*
X79902095Y-113201333D01*
X79978285Y-113163238D01*
X80092571Y-113163238D01*
X80168761Y-113201333D01*
X80206857Y-113239428D01*
X80244952Y-113315619D01*
X80244952Y-113620380D01*
X79825904Y-112896571D02*
X79825904Y-112401333D01*
X80130666Y-112668000D01*
X80130666Y-112553714D01*
X80168761Y-112477523D01*
X80206857Y-112439428D01*
X80283047Y-112401333D01*
X80473523Y-112401333D01*
X80549714Y-112439428D01*
X80587809Y-112477523D01*
X80625904Y-112553714D01*
X80625904Y-112782285D01*
X80587809Y-112858476D01*
X80549714Y-112896571D01*
X79825904Y-111906095D02*
X79825904Y-111829904D01*
X79864000Y-111753714D01*
X79902095Y-111715619D01*
X79978285Y-111677523D01*
X80130666Y-111639428D01*
X80321142Y-111639428D01*
X80473523Y-111677523D01*
X80549714Y-111715619D01*
X80587809Y-111753714D01*
X80625904Y-111829904D01*
X80625904Y-111906095D01*
X80587809Y-111982285D01*
X80549714Y-112020380D01*
X80473523Y-112058476D01*
X80321142Y-112096571D01*
X80130666Y-112096571D01*
X79978285Y-112058476D01*
X79902095Y-112020380D01*
X79864000Y-111982285D01*
X79825904Y-111906095D01*
X79902095Y-111334666D02*
X79864000Y-111296571D01*
X79825904Y-111220380D01*
X79825904Y-111029904D01*
X79864000Y-110953714D01*
X79902095Y-110915619D01*
X79978285Y-110877523D01*
X80054476Y-110877523D01*
X80168761Y-110915619D01*
X80625904Y-111372761D01*
X80625904Y-110877523D01*
%TO.C,C107*%
D14*
X75080952Y-82367142D02*
X75033333Y-82414761D01*
X74890476Y-82462380D01*
X74795238Y-82462380D01*
X74652380Y-82414761D01*
X74557142Y-82319523D01*
X74509523Y-82224285D01*
X74461904Y-82033809D01*
X74461904Y-81890952D01*
X74509523Y-81700476D01*
X74557142Y-81605238D01*
X74652380Y-81510000D01*
X74795238Y-81462380D01*
X74890476Y-81462380D01*
X75033333Y-81510000D01*
X75080952Y-81557619D01*
X76033333Y-82462380D02*
X75461904Y-82462380D01*
X75747619Y-82462380D02*
X75747619Y-81462380D01*
X75652380Y-81605238D01*
X75557142Y-81700476D01*
X75461904Y-81748095D01*
X76652380Y-81462380D02*
X76747619Y-81462380D01*
X76842857Y-81510000D01*
X76890476Y-81557619D01*
X76938095Y-81652857D01*
X76985714Y-81843333D01*
X76985714Y-82081428D01*
X76938095Y-82271904D01*
X76890476Y-82367142D01*
X76842857Y-82414761D01*
X76747619Y-82462380D01*
X76652380Y-82462380D01*
X76557142Y-82414761D01*
X76509523Y-82367142D01*
X76461904Y-82271904D01*
X76414285Y-82081428D01*
X76414285Y-81843333D01*
X76461904Y-81652857D01*
X76509523Y-81557619D01*
X76557142Y-81510000D01*
X76652380Y-81462380D01*
X77319047Y-81462380D02*
X77985714Y-81462380D01*
X77557142Y-82462380D01*
%TO.C,J101*%
X85201285Y-132116380D02*
X85201285Y-132830666D01*
X85153666Y-132973523D01*
X85058428Y-133068761D01*
X84915571Y-133116380D01*
X84820333Y-133116380D01*
X86201285Y-133116380D02*
X85629857Y-133116380D01*
X85915571Y-133116380D02*
X85915571Y-132116380D01*
X85820333Y-132259238D01*
X85725095Y-132354476D01*
X85629857Y-132402095D01*
X86820333Y-132116380D02*
X86915571Y-132116380D01*
X87010809Y-132164000D01*
X87058428Y-132211619D01*
X87106047Y-132306857D01*
X87153666Y-132497333D01*
X87153666Y-132735428D01*
X87106047Y-132925904D01*
X87058428Y-133021142D01*
X87010809Y-133068761D01*
X86915571Y-133116380D01*
X86820333Y-133116380D01*
X86725095Y-133068761D01*
X86677476Y-133021142D01*
X86629857Y-132925904D01*
X86582238Y-132735428D01*
X86582238Y-132497333D01*
X86629857Y-132306857D01*
X86677476Y-132211619D01*
X86725095Y-132164000D01*
X86820333Y-132116380D01*
X88106047Y-133116380D02*
X87534619Y-133116380D01*
X87820333Y-133116380D02*
X87820333Y-132116380D01*
X87725095Y-132259238D01*
X87629857Y-132354476D01*
X87534619Y-132402095D01*
%TO.C,J102*%
X87292380Y-56530714D02*
X88006666Y-56530714D01*
X88149523Y-56578333D01*
X88244761Y-56673571D01*
X88292380Y-56816428D01*
X88292380Y-56911666D01*
X88292380Y-55530714D02*
X88292380Y-56102142D01*
X88292380Y-55816428D02*
X87292380Y-55816428D01*
X87435238Y-55911666D01*
X87530476Y-56006904D01*
X87578095Y-56102142D01*
X87292380Y-54911666D02*
X87292380Y-54816428D01*
X87340000Y-54721190D01*
X87387619Y-54673571D01*
X87482857Y-54625952D01*
X87673333Y-54578333D01*
X87911428Y-54578333D01*
X88101904Y-54625952D01*
X88197142Y-54673571D01*
X88244761Y-54721190D01*
X88292380Y-54816428D01*
X88292380Y-54911666D01*
X88244761Y-55006904D01*
X88197142Y-55054523D01*
X88101904Y-55102142D01*
X87911428Y-55149761D01*
X87673333Y-55149761D01*
X87482857Y-55102142D01*
X87387619Y-55054523D01*
X87340000Y-55006904D01*
X87292380Y-54911666D01*
X87387619Y-54197380D02*
X87340000Y-54149761D01*
X87292380Y-54054523D01*
X87292380Y-53816428D01*
X87340000Y-53721190D01*
X87387619Y-53673571D01*
X87482857Y-53625952D01*
X87578095Y-53625952D01*
X87720952Y-53673571D01*
X88292380Y-54245000D01*
X88292380Y-53625952D01*
%TO.C,C104*%
X64467142Y-96369047D02*
X64514761Y-96416666D01*
X64562380Y-96559523D01*
X64562380Y-96654761D01*
X64514761Y-96797619D01*
X64419523Y-96892857D01*
X64324285Y-96940476D01*
X64133809Y-96988095D01*
X63990952Y-96988095D01*
X63800476Y-96940476D01*
X63705238Y-96892857D01*
X63610000Y-96797619D01*
X63562380Y-96654761D01*
X63562380Y-96559523D01*
X63610000Y-96416666D01*
X63657619Y-96369047D01*
X64562380Y-95416666D02*
X64562380Y-95988095D01*
X64562380Y-95702380D02*
X63562380Y-95702380D01*
X63705238Y-95797619D01*
X63800476Y-95892857D01*
X63848095Y-95988095D01*
X63562380Y-94797619D02*
X63562380Y-94702380D01*
X63610000Y-94607142D01*
X63657619Y-94559523D01*
X63752857Y-94511904D01*
X63943333Y-94464285D01*
X64181428Y-94464285D01*
X64371904Y-94511904D01*
X64467142Y-94559523D01*
X64514761Y-94607142D01*
X64562380Y-94702380D01*
X64562380Y-94797619D01*
X64514761Y-94892857D01*
X64467142Y-94940476D01*
X64371904Y-94988095D01*
X64181428Y-95035714D01*
X63943333Y-95035714D01*
X63752857Y-94988095D01*
X63657619Y-94940476D01*
X63610000Y-94892857D01*
X63562380Y-94797619D01*
X63895714Y-93607142D02*
X64562380Y-93607142D01*
X63514761Y-93845238D02*
X64229047Y-94083333D01*
X64229047Y-93464285D01*
%TO.C,R101*%
X69667380Y-103354047D02*
X69191190Y-103687380D01*
X69667380Y-103925476D02*
X68667380Y-103925476D01*
X68667380Y-103544523D01*
X68715000Y-103449285D01*
X68762619Y-103401666D01*
X68857857Y-103354047D01*
X69000714Y-103354047D01*
X69095952Y-103401666D01*
X69143571Y-103449285D01*
X69191190Y-103544523D01*
X69191190Y-103925476D01*
X69667380Y-102401666D02*
X69667380Y-102973095D01*
X69667380Y-102687380D02*
X68667380Y-102687380D01*
X68810238Y-102782619D01*
X68905476Y-102877857D01*
X68953095Y-102973095D01*
X68667380Y-101782619D02*
X68667380Y-101687380D01*
X68715000Y-101592142D01*
X68762619Y-101544523D01*
X68857857Y-101496904D01*
X69048333Y-101449285D01*
X69286428Y-101449285D01*
X69476904Y-101496904D01*
X69572142Y-101544523D01*
X69619761Y-101592142D01*
X69667380Y-101687380D01*
X69667380Y-101782619D01*
X69619761Y-101877857D01*
X69572142Y-101925476D01*
X69476904Y-101973095D01*
X69286428Y-102020714D01*
X69048333Y-102020714D01*
X68857857Y-101973095D01*
X68762619Y-101925476D01*
X68715000Y-101877857D01*
X68667380Y-101782619D01*
X69667380Y-100496904D02*
X69667380Y-101068333D01*
X69667380Y-100782619D02*
X68667380Y-100782619D01*
X68810238Y-100877857D01*
X68905476Y-100973095D01*
X68953095Y-101068333D01*
%TO.C,C106*%
X66190952Y-88495142D02*
X66143333Y-88542761D01*
X66000476Y-88590380D01*
X65905238Y-88590380D01*
X65762380Y-88542761D01*
X65667142Y-88447523D01*
X65619523Y-88352285D01*
X65571904Y-88161809D01*
X65571904Y-88018952D01*
X65619523Y-87828476D01*
X65667142Y-87733238D01*
X65762380Y-87638000D01*
X65905238Y-87590380D01*
X66000476Y-87590380D01*
X66143333Y-87638000D01*
X66190952Y-87685619D01*
X67143333Y-88590380D02*
X66571904Y-88590380D01*
X66857619Y-88590380D02*
X66857619Y-87590380D01*
X66762380Y-87733238D01*
X66667142Y-87828476D01*
X66571904Y-87876095D01*
X67762380Y-87590380D02*
X67857619Y-87590380D01*
X67952857Y-87638000D01*
X68000476Y-87685619D01*
X68048095Y-87780857D01*
X68095714Y-87971333D01*
X68095714Y-88209428D01*
X68048095Y-88399904D01*
X68000476Y-88495142D01*
X67952857Y-88542761D01*
X67857619Y-88590380D01*
X67762380Y-88590380D01*
X67667142Y-88542761D01*
X67619523Y-88495142D01*
X67571904Y-88399904D01*
X67524285Y-88209428D01*
X67524285Y-87971333D01*
X67571904Y-87780857D01*
X67619523Y-87685619D01*
X67667142Y-87638000D01*
X67762380Y-87590380D01*
X68952857Y-87590380D02*
X68762380Y-87590380D01*
X68667142Y-87638000D01*
X68619523Y-87685619D01*
X68524285Y-87828476D01*
X68476666Y-88018952D01*
X68476666Y-88399904D01*
X68524285Y-88495142D01*
X68571904Y-88542761D01*
X68667142Y-88590380D01*
X68857619Y-88590380D01*
X68952857Y-88542761D01*
X69000476Y-88495142D01*
X69048095Y-88399904D01*
X69048095Y-88161809D01*
X69000476Y-88066571D01*
X68952857Y-88018952D01*
X68857619Y-87971333D01*
X68667142Y-87971333D01*
X68571904Y-88018952D01*
X68524285Y-88066571D01*
X68476666Y-88161809D01*
%TO.C,C105*%
X59637142Y-96369047D02*
X59684761Y-96416666D01*
X59732380Y-96559523D01*
X59732380Y-96654761D01*
X59684761Y-96797619D01*
X59589523Y-96892857D01*
X59494285Y-96940476D01*
X59303809Y-96988095D01*
X59160952Y-96988095D01*
X58970476Y-96940476D01*
X58875238Y-96892857D01*
X58780000Y-96797619D01*
X58732380Y-96654761D01*
X58732380Y-96559523D01*
X58780000Y-96416666D01*
X58827619Y-96369047D01*
X59732380Y-95416666D02*
X59732380Y-95988095D01*
X59732380Y-95702380D02*
X58732380Y-95702380D01*
X58875238Y-95797619D01*
X58970476Y-95892857D01*
X59018095Y-95988095D01*
X58732380Y-94797619D02*
X58732380Y-94702380D01*
X58780000Y-94607142D01*
X58827619Y-94559523D01*
X58922857Y-94511904D01*
X59113333Y-94464285D01*
X59351428Y-94464285D01*
X59541904Y-94511904D01*
X59637142Y-94559523D01*
X59684761Y-94607142D01*
X59732380Y-94702380D01*
X59732380Y-94797619D01*
X59684761Y-94892857D01*
X59637142Y-94940476D01*
X59541904Y-94988095D01*
X59351428Y-95035714D01*
X59113333Y-95035714D01*
X58922857Y-94988095D01*
X58827619Y-94940476D01*
X58780000Y-94892857D01*
X58732380Y-94797619D01*
X58732380Y-93559523D02*
X58732380Y-94035714D01*
X59208571Y-94083333D01*
X59160952Y-94035714D01*
X59113333Y-93940476D01*
X59113333Y-93702380D01*
X59160952Y-93607142D01*
X59208571Y-93559523D01*
X59303809Y-93511904D01*
X59541904Y-93511904D01*
X59637142Y-93559523D01*
X59684761Y-93607142D01*
X59732380Y-93702380D01*
X59732380Y-93940476D01*
X59684761Y-94035714D01*
X59637142Y-94083333D01*
%TO.C,C101*%
X71067142Y-103354047D02*
X71114761Y-103401666D01*
X71162380Y-103544523D01*
X71162380Y-103639761D01*
X71114761Y-103782619D01*
X71019523Y-103877857D01*
X70924285Y-103925476D01*
X70733809Y-103973095D01*
X70590952Y-103973095D01*
X70400476Y-103925476D01*
X70305238Y-103877857D01*
X70210000Y-103782619D01*
X70162380Y-103639761D01*
X70162380Y-103544523D01*
X70210000Y-103401666D01*
X70257619Y-103354047D01*
X71162380Y-102401666D02*
X71162380Y-102973095D01*
X71162380Y-102687380D02*
X70162380Y-102687380D01*
X70305238Y-102782619D01*
X70400476Y-102877857D01*
X70448095Y-102973095D01*
X70162380Y-101782619D02*
X70162380Y-101687380D01*
X70210000Y-101592142D01*
X70257619Y-101544523D01*
X70352857Y-101496904D01*
X70543333Y-101449285D01*
X70781428Y-101449285D01*
X70971904Y-101496904D01*
X71067142Y-101544523D01*
X71114761Y-101592142D01*
X71162380Y-101687380D01*
X71162380Y-101782619D01*
X71114761Y-101877857D01*
X71067142Y-101925476D01*
X70971904Y-101973095D01*
X70781428Y-102020714D01*
X70543333Y-102020714D01*
X70352857Y-101973095D01*
X70257619Y-101925476D01*
X70210000Y-101877857D01*
X70162380Y-101782619D01*
X71162380Y-100496904D02*
X71162380Y-101068333D01*
X71162380Y-100782619D02*
X70162380Y-100782619D01*
X70305238Y-100877857D01*
X70400476Y-100973095D01*
X70448095Y-101068333D01*
%TO.C,C102*%
X66190952Y-84685142D02*
X66143333Y-84732761D01*
X66000476Y-84780380D01*
X65905238Y-84780380D01*
X65762380Y-84732761D01*
X65667142Y-84637523D01*
X65619523Y-84542285D01*
X65571904Y-84351809D01*
X65571904Y-84208952D01*
X65619523Y-84018476D01*
X65667142Y-83923238D01*
X65762380Y-83828000D01*
X65905238Y-83780380D01*
X66000476Y-83780380D01*
X66143333Y-83828000D01*
X66190952Y-83875619D01*
X67143333Y-84780380D02*
X66571904Y-84780380D01*
X66857619Y-84780380D02*
X66857619Y-83780380D01*
X66762380Y-83923238D01*
X66667142Y-84018476D01*
X66571904Y-84066095D01*
X67762380Y-83780380D02*
X67857619Y-83780380D01*
X67952857Y-83828000D01*
X68000476Y-83875619D01*
X68048095Y-83970857D01*
X68095714Y-84161333D01*
X68095714Y-84399428D01*
X68048095Y-84589904D01*
X68000476Y-84685142D01*
X67952857Y-84732761D01*
X67857619Y-84780380D01*
X67762380Y-84780380D01*
X67667142Y-84732761D01*
X67619523Y-84685142D01*
X67571904Y-84589904D01*
X67524285Y-84399428D01*
X67524285Y-84161333D01*
X67571904Y-83970857D01*
X67619523Y-83875619D01*
X67667142Y-83828000D01*
X67762380Y-83780380D01*
X68476666Y-83875619D02*
X68524285Y-83828000D01*
X68619523Y-83780380D01*
X68857619Y-83780380D01*
X68952857Y-83828000D01*
X69000476Y-83875619D01*
X69048095Y-83970857D01*
X69048095Y-84066095D01*
X69000476Y-84208952D01*
X68429047Y-84780380D01*
X69048095Y-84780380D01*
%TO.C,U102*%
X71152380Y-96964285D02*
X71961904Y-96964285D01*
X72057142Y-96916666D01*
X72104761Y-96869047D01*
X72152380Y-96773809D01*
X72152380Y-96583333D01*
X72104761Y-96488095D01*
X72057142Y-96440476D01*
X71961904Y-96392857D01*
X71152380Y-96392857D01*
X72152380Y-95392857D02*
X72152380Y-95964285D01*
X72152380Y-95678571D02*
X71152380Y-95678571D01*
X71295238Y-95773809D01*
X71390476Y-95869047D01*
X71438095Y-95964285D01*
X71152380Y-94773809D02*
X71152380Y-94678571D01*
X71200000Y-94583333D01*
X71247619Y-94535714D01*
X71342857Y-94488095D01*
X71533333Y-94440476D01*
X71771428Y-94440476D01*
X71961904Y-94488095D01*
X72057142Y-94535714D01*
X72104761Y-94583333D01*
X72152380Y-94678571D01*
X72152380Y-94773809D01*
X72104761Y-94869047D01*
X72057142Y-94916666D01*
X71961904Y-94964285D01*
X71771428Y-95011904D01*
X71533333Y-95011904D01*
X71342857Y-94964285D01*
X71247619Y-94916666D01*
X71200000Y-94869047D01*
X71152380Y-94773809D01*
X71247619Y-94059523D02*
X71200000Y-94011904D01*
X71152380Y-93916666D01*
X71152380Y-93678571D01*
X71200000Y-93583333D01*
X71247619Y-93535714D01*
X71342857Y-93488095D01*
X71438095Y-93488095D01*
X71580952Y-93535714D01*
X72152380Y-94107142D01*
X72152380Y-93488095D01*
%TO.C,SW101*%
X65809761Y-105155714D02*
X65857380Y-105012857D01*
X65857380Y-104774761D01*
X65809761Y-104679523D01*
X65762142Y-104631904D01*
X65666904Y-104584285D01*
X65571666Y-104584285D01*
X65476428Y-104631904D01*
X65428809Y-104679523D01*
X65381190Y-104774761D01*
X65333571Y-104965238D01*
X65285952Y-105060476D01*
X65238333Y-105108095D01*
X65143095Y-105155714D01*
X65047857Y-105155714D01*
X64952619Y-105108095D01*
X64905000Y-105060476D01*
X64857380Y-104965238D01*
X64857380Y-104727142D01*
X64905000Y-104584285D01*
X64857380Y-104250952D02*
X65857380Y-104012857D01*
X65143095Y-103822380D01*
X65857380Y-103631904D01*
X64857380Y-103393809D01*
X65857380Y-102489047D02*
X65857380Y-103060476D01*
X65857380Y-102774761D02*
X64857380Y-102774761D01*
X65000238Y-102870000D01*
X65095476Y-102965238D01*
X65143095Y-103060476D01*
X64857380Y-101870000D02*
X64857380Y-101774761D01*
X64905000Y-101679523D01*
X64952619Y-101631904D01*
X65047857Y-101584285D01*
X65238333Y-101536666D01*
X65476428Y-101536666D01*
X65666904Y-101584285D01*
X65762142Y-101631904D01*
X65809761Y-101679523D01*
X65857380Y-101774761D01*
X65857380Y-101870000D01*
X65809761Y-101965238D01*
X65762142Y-102012857D01*
X65666904Y-102060476D01*
X65476428Y-102108095D01*
X65238333Y-102108095D01*
X65047857Y-102060476D01*
X64952619Y-102012857D01*
X64905000Y-101965238D01*
X64857380Y-101870000D01*
X65857380Y-100584285D02*
X65857380Y-101155714D01*
X65857380Y-100870000D02*
X64857380Y-100870000D01*
X65000238Y-100965238D01*
X65095476Y-101060476D01*
X65143095Y-101155714D01*
%TO.C,SW102*%
X74764761Y-105155714D02*
X74812380Y-105012857D01*
X74812380Y-104774761D01*
X74764761Y-104679523D01*
X74717142Y-104631904D01*
X74621904Y-104584285D01*
X74526666Y-104584285D01*
X74431428Y-104631904D01*
X74383809Y-104679523D01*
X74336190Y-104774761D01*
X74288571Y-104965238D01*
X74240952Y-105060476D01*
X74193333Y-105108095D01*
X74098095Y-105155714D01*
X74002857Y-105155714D01*
X73907619Y-105108095D01*
X73860000Y-105060476D01*
X73812380Y-104965238D01*
X73812380Y-104727142D01*
X73860000Y-104584285D01*
X73812380Y-104250952D02*
X74812380Y-104012857D01*
X74098095Y-103822380D01*
X74812380Y-103631904D01*
X73812380Y-103393809D01*
X74812380Y-102489047D02*
X74812380Y-103060476D01*
X74812380Y-102774761D02*
X73812380Y-102774761D01*
X73955238Y-102870000D01*
X74050476Y-102965238D01*
X74098095Y-103060476D01*
X73812380Y-101870000D02*
X73812380Y-101774761D01*
X73860000Y-101679523D01*
X73907619Y-101631904D01*
X74002857Y-101584285D01*
X74193333Y-101536666D01*
X74431428Y-101536666D01*
X74621904Y-101584285D01*
X74717142Y-101631904D01*
X74764761Y-101679523D01*
X74812380Y-101774761D01*
X74812380Y-101870000D01*
X74764761Y-101965238D01*
X74717142Y-102012857D01*
X74621904Y-102060476D01*
X74431428Y-102108095D01*
X74193333Y-102108095D01*
X74002857Y-102060476D01*
X73907619Y-102012857D01*
X73860000Y-101965238D01*
X73812380Y-101870000D01*
X73907619Y-101155714D02*
X73860000Y-101108095D01*
X73812380Y-101012857D01*
X73812380Y-100774761D01*
X73860000Y-100679523D01*
X73907619Y-100631904D01*
X74002857Y-100584285D01*
X74098095Y-100584285D01*
X74240952Y-100631904D01*
X74812380Y-101203333D01*
X74812380Y-100584285D01*
%TO.C,R301*%
D13*
X85197904Y-111131238D02*
X84816952Y-111397904D01*
X85197904Y-111588380D02*
X84397904Y-111588380D01*
X84397904Y-111283619D01*
X84436000Y-111207428D01*
X84474095Y-111169333D01*
X84550285Y-111131238D01*
X84664571Y-111131238D01*
X84740761Y-111169333D01*
X84778857Y-111207428D01*
X84816952Y-111283619D01*
X84816952Y-111588380D01*
X84397904Y-110864571D02*
X84397904Y-110369333D01*
X84702666Y-110636000D01*
X84702666Y-110521714D01*
X84740761Y-110445523D01*
X84778857Y-110407428D01*
X84855047Y-110369333D01*
X85045523Y-110369333D01*
X85121714Y-110407428D01*
X85159809Y-110445523D01*
X85197904Y-110521714D01*
X85197904Y-110750285D01*
X85159809Y-110826476D01*
X85121714Y-110864571D01*
X84397904Y-109874095D02*
X84397904Y-109797904D01*
X84436000Y-109721714D01*
X84474095Y-109683619D01*
X84550285Y-109645523D01*
X84702666Y-109607428D01*
X84893142Y-109607428D01*
X85045523Y-109645523D01*
X85121714Y-109683619D01*
X85159809Y-109721714D01*
X85197904Y-109797904D01*
X85197904Y-109874095D01*
X85159809Y-109950285D01*
X85121714Y-109988380D01*
X85045523Y-110026476D01*
X84893142Y-110064571D01*
X84702666Y-110064571D01*
X84550285Y-110026476D01*
X84474095Y-109988380D01*
X84436000Y-109950285D01*
X84397904Y-109874095D01*
X85197904Y-108845523D02*
X85197904Y-109302666D01*
X85197904Y-109074095D02*
X84397904Y-109074095D01*
X84512190Y-109150285D01*
X84588380Y-109226476D01*
X84626476Y-109302666D01*
%TO.C,C301*%
D14*
X92860952Y-132945142D02*
X92813333Y-132992761D01*
X92670476Y-133040380D01*
X92575238Y-133040380D01*
X92432380Y-132992761D01*
X92337142Y-132897523D01*
X92289523Y-132802285D01*
X92241904Y-132611809D01*
X92241904Y-132468952D01*
X92289523Y-132278476D01*
X92337142Y-132183238D01*
X92432380Y-132088000D01*
X92575238Y-132040380D01*
X92670476Y-132040380D01*
X92813333Y-132088000D01*
X92860952Y-132135619D01*
X93194285Y-132040380D02*
X93813333Y-132040380D01*
X93480000Y-132421333D01*
X93622857Y-132421333D01*
X93718095Y-132468952D01*
X93765714Y-132516571D01*
X93813333Y-132611809D01*
X93813333Y-132849904D01*
X93765714Y-132945142D01*
X93718095Y-132992761D01*
X93622857Y-133040380D01*
X93337142Y-133040380D01*
X93241904Y-132992761D01*
X93194285Y-132945142D01*
X94432380Y-132040380D02*
X94527619Y-132040380D01*
X94622857Y-132088000D01*
X94670476Y-132135619D01*
X94718095Y-132230857D01*
X94765714Y-132421333D01*
X94765714Y-132659428D01*
X94718095Y-132849904D01*
X94670476Y-132945142D01*
X94622857Y-132992761D01*
X94527619Y-133040380D01*
X94432380Y-133040380D01*
X94337142Y-132992761D01*
X94289523Y-132945142D01*
X94241904Y-132849904D01*
X94194285Y-132659428D01*
X94194285Y-132421333D01*
X94241904Y-132230857D01*
X94289523Y-132135619D01*
X94337142Y-132088000D01*
X94432380Y-132040380D01*
X95718095Y-133040380D02*
X95146666Y-133040380D01*
X95432380Y-133040380D02*
X95432380Y-132040380D01*
X95337142Y-132183238D01*
X95241904Y-132278476D01*
X95146666Y-132326095D01*
%TO.C,D202*%
X74509523Y-130627380D02*
X74509523Y-129627380D01*
X74747619Y-129627380D01*
X74890476Y-129675000D01*
X74985714Y-129770238D01*
X75033333Y-129865476D01*
X75080952Y-130055952D01*
X75080952Y-130198809D01*
X75033333Y-130389285D01*
X74985714Y-130484523D01*
X74890476Y-130579761D01*
X74747619Y-130627380D01*
X74509523Y-130627380D01*
X75461904Y-129722619D02*
X75509523Y-129675000D01*
X75604761Y-129627380D01*
X75842857Y-129627380D01*
X75938095Y-129675000D01*
X75985714Y-129722619D01*
X76033333Y-129817857D01*
X76033333Y-129913095D01*
X75985714Y-130055952D01*
X75414285Y-130627380D01*
X76033333Y-130627380D01*
X76652380Y-129627380D02*
X76747619Y-129627380D01*
X76842857Y-129675000D01*
X76890476Y-129722619D01*
X76938095Y-129817857D01*
X76985714Y-130008333D01*
X76985714Y-130246428D01*
X76938095Y-130436904D01*
X76890476Y-130532142D01*
X76842857Y-130579761D01*
X76747619Y-130627380D01*
X76652380Y-130627380D01*
X76557142Y-130579761D01*
X76509523Y-130532142D01*
X76461904Y-130436904D01*
X76414285Y-130246428D01*
X76414285Y-130008333D01*
X76461904Y-129817857D01*
X76509523Y-129722619D01*
X76557142Y-129675000D01*
X76652380Y-129627380D01*
X77366666Y-129722619D02*
X77414285Y-129675000D01*
X77509523Y-129627380D01*
X77747619Y-129627380D01*
X77842857Y-129675000D01*
X77890476Y-129722619D01*
X77938095Y-129817857D01*
X77938095Y-129913095D01*
X77890476Y-130055952D01*
X77319047Y-130627380D01*
X77938095Y-130627380D01*
%TO.C,D201*%
X61809523Y-130627380D02*
X61809523Y-129627380D01*
X62047619Y-129627380D01*
X62190476Y-129675000D01*
X62285714Y-129770238D01*
X62333333Y-129865476D01*
X62380952Y-130055952D01*
X62380952Y-130198809D01*
X62333333Y-130389285D01*
X62285714Y-130484523D01*
X62190476Y-130579761D01*
X62047619Y-130627380D01*
X61809523Y-130627380D01*
X62761904Y-129722619D02*
X62809523Y-129675000D01*
X62904761Y-129627380D01*
X63142857Y-129627380D01*
X63238095Y-129675000D01*
X63285714Y-129722619D01*
X63333333Y-129817857D01*
X63333333Y-129913095D01*
X63285714Y-130055952D01*
X62714285Y-130627380D01*
X63333333Y-130627380D01*
X63952380Y-129627380D02*
X64047619Y-129627380D01*
X64142857Y-129675000D01*
X64190476Y-129722619D01*
X64238095Y-129817857D01*
X64285714Y-130008333D01*
X64285714Y-130246428D01*
X64238095Y-130436904D01*
X64190476Y-130532142D01*
X64142857Y-130579761D01*
X64047619Y-130627380D01*
X63952380Y-130627380D01*
X63857142Y-130579761D01*
X63809523Y-130532142D01*
X63761904Y-130436904D01*
X63714285Y-130246428D01*
X63714285Y-130008333D01*
X63761904Y-129817857D01*
X63809523Y-129722619D01*
X63857142Y-129675000D01*
X63952380Y-129627380D01*
X65238095Y-130627380D02*
X64666666Y-130627380D01*
X64952380Y-130627380D02*
X64952380Y-129627380D01*
X64857142Y-129770238D01*
X64761904Y-129865476D01*
X64666666Y-129913095D01*
%TO.C,R204*%
X69365952Y-120467380D02*
X69032619Y-119991190D01*
X68794523Y-120467380D02*
X68794523Y-119467380D01*
X69175476Y-119467380D01*
X69270714Y-119515000D01*
X69318333Y-119562619D01*
X69365952Y-119657857D01*
X69365952Y-119800714D01*
X69318333Y-119895952D01*
X69270714Y-119943571D01*
X69175476Y-119991190D01*
X68794523Y-119991190D01*
X69746904Y-119562619D02*
X69794523Y-119515000D01*
X69889761Y-119467380D01*
X70127857Y-119467380D01*
X70223095Y-119515000D01*
X70270714Y-119562619D01*
X70318333Y-119657857D01*
X70318333Y-119753095D01*
X70270714Y-119895952D01*
X69699285Y-120467380D01*
X70318333Y-120467380D01*
X70937380Y-119467380D02*
X71032619Y-119467380D01*
X71127857Y-119515000D01*
X71175476Y-119562619D01*
X71223095Y-119657857D01*
X71270714Y-119848333D01*
X71270714Y-120086428D01*
X71223095Y-120276904D01*
X71175476Y-120372142D01*
X71127857Y-120419761D01*
X71032619Y-120467380D01*
X70937380Y-120467380D01*
X70842142Y-120419761D01*
X70794523Y-120372142D01*
X70746904Y-120276904D01*
X70699285Y-120086428D01*
X70699285Y-119848333D01*
X70746904Y-119657857D01*
X70794523Y-119562619D01*
X70842142Y-119515000D01*
X70937380Y-119467380D01*
X72127857Y-119800714D02*
X72127857Y-120467380D01*
X71889761Y-119419761D02*
X71651666Y-120134047D01*
X72270714Y-120134047D01*
%TO.C,R206*%
X69365952Y-124277380D02*
X69032619Y-123801190D01*
X68794523Y-124277380D02*
X68794523Y-123277380D01*
X69175476Y-123277380D01*
X69270714Y-123325000D01*
X69318333Y-123372619D01*
X69365952Y-123467857D01*
X69365952Y-123610714D01*
X69318333Y-123705952D01*
X69270714Y-123753571D01*
X69175476Y-123801190D01*
X68794523Y-123801190D01*
X69746904Y-123372619D02*
X69794523Y-123325000D01*
X69889761Y-123277380D01*
X70127857Y-123277380D01*
X70223095Y-123325000D01*
X70270714Y-123372619D01*
X70318333Y-123467857D01*
X70318333Y-123563095D01*
X70270714Y-123705952D01*
X69699285Y-124277380D01*
X70318333Y-124277380D01*
X70937380Y-123277380D02*
X71032619Y-123277380D01*
X71127857Y-123325000D01*
X71175476Y-123372619D01*
X71223095Y-123467857D01*
X71270714Y-123658333D01*
X71270714Y-123896428D01*
X71223095Y-124086904D01*
X71175476Y-124182142D01*
X71127857Y-124229761D01*
X71032619Y-124277380D01*
X70937380Y-124277380D01*
X70842142Y-124229761D01*
X70794523Y-124182142D01*
X70746904Y-124086904D01*
X70699285Y-123896428D01*
X70699285Y-123658333D01*
X70746904Y-123467857D01*
X70794523Y-123372619D01*
X70842142Y-123325000D01*
X70937380Y-123277380D01*
X72127857Y-123277380D02*
X71937380Y-123277380D01*
X71842142Y-123325000D01*
X71794523Y-123372619D01*
X71699285Y-123515476D01*
X71651666Y-123705952D01*
X71651666Y-124086904D01*
X71699285Y-124182142D01*
X71746904Y-124229761D01*
X71842142Y-124277380D01*
X72032619Y-124277380D01*
X72127857Y-124229761D01*
X72175476Y-124182142D01*
X72223095Y-124086904D01*
X72223095Y-123848809D01*
X72175476Y-123753571D01*
X72127857Y-123705952D01*
X72032619Y-123658333D01*
X71842142Y-123658333D01*
X71746904Y-123705952D01*
X71699285Y-123753571D01*
X71651666Y-123848809D01*
%TO.C,R205*%
X72207380Y-128119047D02*
X71731190Y-128452380D01*
X72207380Y-128690476D02*
X71207380Y-128690476D01*
X71207380Y-128309523D01*
X71255000Y-128214285D01*
X71302619Y-128166666D01*
X71397857Y-128119047D01*
X71540714Y-128119047D01*
X71635952Y-128166666D01*
X71683571Y-128214285D01*
X71731190Y-128309523D01*
X71731190Y-128690476D01*
X71302619Y-127738095D02*
X71255000Y-127690476D01*
X71207380Y-127595238D01*
X71207380Y-127357142D01*
X71255000Y-127261904D01*
X71302619Y-127214285D01*
X71397857Y-127166666D01*
X71493095Y-127166666D01*
X71635952Y-127214285D01*
X72207380Y-127785714D01*
X72207380Y-127166666D01*
X71207380Y-126547619D02*
X71207380Y-126452380D01*
X71255000Y-126357142D01*
X71302619Y-126309523D01*
X71397857Y-126261904D01*
X71588333Y-126214285D01*
X71826428Y-126214285D01*
X72016904Y-126261904D01*
X72112142Y-126309523D01*
X72159761Y-126357142D01*
X72207380Y-126452380D01*
X72207380Y-126547619D01*
X72159761Y-126642857D01*
X72112142Y-126690476D01*
X72016904Y-126738095D01*
X71826428Y-126785714D01*
X71588333Y-126785714D01*
X71397857Y-126738095D01*
X71302619Y-126690476D01*
X71255000Y-126642857D01*
X71207380Y-126547619D01*
X71207380Y-125309523D02*
X71207380Y-125785714D01*
X71683571Y-125833333D01*
X71635952Y-125785714D01*
X71588333Y-125690476D01*
X71588333Y-125452380D01*
X71635952Y-125357142D01*
X71683571Y-125309523D01*
X71778809Y-125261904D01*
X72016904Y-125261904D01*
X72112142Y-125309523D01*
X72159761Y-125357142D01*
X72207380Y-125452380D01*
X72207380Y-125690476D01*
X72159761Y-125785714D01*
X72112142Y-125833333D01*
%TO.C,R201*%
X56665952Y-120467380D02*
X56332619Y-119991190D01*
X56094523Y-120467380D02*
X56094523Y-119467380D01*
X56475476Y-119467380D01*
X56570714Y-119515000D01*
X56618333Y-119562619D01*
X56665952Y-119657857D01*
X56665952Y-119800714D01*
X56618333Y-119895952D01*
X56570714Y-119943571D01*
X56475476Y-119991190D01*
X56094523Y-119991190D01*
X57046904Y-119562619D02*
X57094523Y-119515000D01*
X57189761Y-119467380D01*
X57427857Y-119467380D01*
X57523095Y-119515000D01*
X57570714Y-119562619D01*
X57618333Y-119657857D01*
X57618333Y-119753095D01*
X57570714Y-119895952D01*
X56999285Y-120467380D01*
X57618333Y-120467380D01*
X58237380Y-119467380D02*
X58332619Y-119467380D01*
X58427857Y-119515000D01*
X58475476Y-119562619D01*
X58523095Y-119657857D01*
X58570714Y-119848333D01*
X58570714Y-120086428D01*
X58523095Y-120276904D01*
X58475476Y-120372142D01*
X58427857Y-120419761D01*
X58332619Y-120467380D01*
X58237380Y-120467380D01*
X58142142Y-120419761D01*
X58094523Y-120372142D01*
X58046904Y-120276904D01*
X57999285Y-120086428D01*
X57999285Y-119848333D01*
X58046904Y-119657857D01*
X58094523Y-119562619D01*
X58142142Y-119515000D01*
X58237380Y-119467380D01*
X59523095Y-120467380D02*
X58951666Y-120467380D01*
X59237380Y-120467380D02*
X59237380Y-119467380D01*
X59142142Y-119610238D01*
X59046904Y-119705476D01*
X58951666Y-119753095D01*
%TO.C,R203*%
X56665952Y-124277380D02*
X56332619Y-123801190D01*
X56094523Y-124277380D02*
X56094523Y-123277380D01*
X56475476Y-123277380D01*
X56570714Y-123325000D01*
X56618333Y-123372619D01*
X56665952Y-123467857D01*
X56665952Y-123610714D01*
X56618333Y-123705952D01*
X56570714Y-123753571D01*
X56475476Y-123801190D01*
X56094523Y-123801190D01*
X57046904Y-123372619D02*
X57094523Y-123325000D01*
X57189761Y-123277380D01*
X57427857Y-123277380D01*
X57523095Y-123325000D01*
X57570714Y-123372619D01*
X57618333Y-123467857D01*
X57618333Y-123563095D01*
X57570714Y-123705952D01*
X56999285Y-124277380D01*
X57618333Y-124277380D01*
X58237380Y-123277380D02*
X58332619Y-123277380D01*
X58427857Y-123325000D01*
X58475476Y-123372619D01*
X58523095Y-123467857D01*
X58570714Y-123658333D01*
X58570714Y-123896428D01*
X58523095Y-124086904D01*
X58475476Y-124182142D01*
X58427857Y-124229761D01*
X58332619Y-124277380D01*
X58237380Y-124277380D01*
X58142142Y-124229761D01*
X58094523Y-124182142D01*
X58046904Y-124086904D01*
X57999285Y-123896428D01*
X57999285Y-123658333D01*
X58046904Y-123467857D01*
X58094523Y-123372619D01*
X58142142Y-123325000D01*
X58237380Y-123277380D01*
X58904047Y-123277380D02*
X59523095Y-123277380D01*
X59189761Y-123658333D01*
X59332619Y-123658333D01*
X59427857Y-123705952D01*
X59475476Y-123753571D01*
X59523095Y-123848809D01*
X59523095Y-124086904D01*
X59475476Y-124182142D01*
X59427857Y-124229761D01*
X59332619Y-124277380D01*
X59046904Y-124277380D01*
X58951666Y-124229761D01*
X58904047Y-124182142D01*
%TO.C,R202*%
X59507380Y-128119047D02*
X59031190Y-128452380D01*
X59507380Y-128690476D02*
X58507380Y-128690476D01*
X58507380Y-128309523D01*
X58555000Y-128214285D01*
X58602619Y-128166666D01*
X58697857Y-128119047D01*
X58840714Y-128119047D01*
X58935952Y-128166666D01*
X58983571Y-128214285D01*
X59031190Y-128309523D01*
X59031190Y-128690476D01*
X58602619Y-127738095D02*
X58555000Y-127690476D01*
X58507380Y-127595238D01*
X58507380Y-127357142D01*
X58555000Y-127261904D01*
X58602619Y-127214285D01*
X58697857Y-127166666D01*
X58793095Y-127166666D01*
X58935952Y-127214285D01*
X59507380Y-127785714D01*
X59507380Y-127166666D01*
X58507380Y-126547619D02*
X58507380Y-126452380D01*
X58555000Y-126357142D01*
X58602619Y-126309523D01*
X58697857Y-126261904D01*
X58888333Y-126214285D01*
X59126428Y-126214285D01*
X59316904Y-126261904D01*
X59412142Y-126309523D01*
X59459761Y-126357142D01*
X59507380Y-126452380D01*
X59507380Y-126547619D01*
X59459761Y-126642857D01*
X59412142Y-126690476D01*
X59316904Y-126738095D01*
X59126428Y-126785714D01*
X58888333Y-126785714D01*
X58697857Y-126738095D01*
X58602619Y-126690476D01*
X58555000Y-126642857D01*
X58507380Y-126547619D01*
X58602619Y-125833333D02*
X58555000Y-125785714D01*
X58507380Y-125690476D01*
X58507380Y-125452380D01*
X58555000Y-125357142D01*
X58602619Y-125309523D01*
X58697857Y-125261904D01*
X58793095Y-125261904D01*
X58935952Y-125309523D01*
X59507380Y-125880952D01*
X59507380Y-125261904D01*
%TO.C,J202*%
X69199285Y-130262380D02*
X69199285Y-130976666D01*
X69151666Y-131119523D01*
X69056428Y-131214761D01*
X68913571Y-131262380D01*
X68818333Y-131262380D01*
X69627857Y-130357619D02*
X69675476Y-130310000D01*
X69770714Y-130262380D01*
X70008809Y-130262380D01*
X70104047Y-130310000D01*
X70151666Y-130357619D01*
X70199285Y-130452857D01*
X70199285Y-130548095D01*
X70151666Y-130690952D01*
X69580238Y-131262380D01*
X70199285Y-131262380D01*
X70818333Y-130262380D02*
X70913571Y-130262380D01*
X71008809Y-130310000D01*
X71056428Y-130357619D01*
X71104047Y-130452857D01*
X71151666Y-130643333D01*
X71151666Y-130881428D01*
X71104047Y-131071904D01*
X71056428Y-131167142D01*
X71008809Y-131214761D01*
X70913571Y-131262380D01*
X70818333Y-131262380D01*
X70723095Y-131214761D01*
X70675476Y-131167142D01*
X70627857Y-131071904D01*
X70580238Y-130881428D01*
X70580238Y-130643333D01*
X70627857Y-130452857D01*
X70675476Y-130357619D01*
X70723095Y-130310000D01*
X70818333Y-130262380D01*
X71532619Y-130357619D02*
X71580238Y-130310000D01*
X71675476Y-130262380D01*
X71913571Y-130262380D01*
X72008809Y-130310000D01*
X72056428Y-130357619D01*
X72104047Y-130452857D01*
X72104047Y-130548095D01*
X72056428Y-130690952D01*
X71485000Y-131262380D01*
X72104047Y-131262380D01*
%TO.C,J201*%
X56499285Y-130262380D02*
X56499285Y-130976666D01*
X56451666Y-131119523D01*
X56356428Y-131214761D01*
X56213571Y-131262380D01*
X56118333Y-131262380D01*
X56927857Y-130357619D02*
X56975476Y-130310000D01*
X57070714Y-130262380D01*
X57308809Y-130262380D01*
X57404047Y-130310000D01*
X57451666Y-130357619D01*
X57499285Y-130452857D01*
X57499285Y-130548095D01*
X57451666Y-130690952D01*
X56880238Y-131262380D01*
X57499285Y-131262380D01*
X58118333Y-130262380D02*
X58213571Y-130262380D01*
X58308809Y-130310000D01*
X58356428Y-130357619D01*
X58404047Y-130452857D01*
X58451666Y-130643333D01*
X58451666Y-130881428D01*
X58404047Y-131071904D01*
X58356428Y-131167142D01*
X58308809Y-131214761D01*
X58213571Y-131262380D01*
X58118333Y-131262380D01*
X58023095Y-131214761D01*
X57975476Y-131167142D01*
X57927857Y-131071904D01*
X57880238Y-130881428D01*
X57880238Y-130643333D01*
X57927857Y-130452857D01*
X57975476Y-130357619D01*
X58023095Y-130310000D01*
X58118333Y-130262380D01*
X59404047Y-131262380D02*
X58832619Y-131262380D01*
X59118333Y-131262380D02*
X59118333Y-130262380D01*
X59023095Y-130405238D01*
X58927857Y-130500476D01*
X58832619Y-130548095D01*
%TO.C,U101*%
X58997380Y-79359285D02*
X59806904Y-79359285D01*
X59902142Y-79311666D01*
X59949761Y-79264047D01*
X59997380Y-79168809D01*
X59997380Y-78978333D01*
X59949761Y-78883095D01*
X59902142Y-78835476D01*
X59806904Y-78787857D01*
X58997380Y-78787857D01*
X59997380Y-77787857D02*
X59997380Y-78359285D01*
X59997380Y-78073571D02*
X58997380Y-78073571D01*
X59140238Y-78168809D01*
X59235476Y-78264047D01*
X59283095Y-78359285D01*
X58997380Y-77168809D02*
X58997380Y-77073571D01*
X59045000Y-76978333D01*
X59092619Y-76930714D01*
X59187857Y-76883095D01*
X59378333Y-76835476D01*
X59616428Y-76835476D01*
X59806904Y-76883095D01*
X59902142Y-76930714D01*
X59949761Y-76978333D01*
X59997380Y-77073571D01*
X59997380Y-77168809D01*
X59949761Y-77264047D01*
X59902142Y-77311666D01*
X59806904Y-77359285D01*
X59616428Y-77406904D01*
X59378333Y-77406904D01*
X59187857Y-77359285D01*
X59092619Y-77311666D01*
X59045000Y-77264047D01*
X58997380Y-77168809D01*
X59997380Y-75883095D02*
X59997380Y-76454523D01*
X59997380Y-76168809D02*
X58997380Y-76168809D01*
X59140238Y-76264047D01*
X59235476Y-76359285D01*
X59283095Y-76454523D01*
%TD*%
M02*
