M48
; DRILL file {KiCad (5.1.10)-1} date 10/16/21 09:54:47
; FORMAT={-:-/ absolute / inch / decimal}
; #@! TF.CreationDate,2021-10-16T09:54:47+02:00
; #@! TF.GenerationSoftware,Kicad,Pcbnew,(5.1.10)-1
; #@! TF.FileFunction,Plated,1,2,PTH
FMAT,2
INCH
T1C0.0157
T2C0.0300
T3C0.0394
T4C0.0409
T5C0.0512
T6C0.0598
%
G90
G05
T1
X2.35Y-4.375
X2.4178Y-3.6611
X2.55Y-4.6
X2.575Y-4.2
X2.5886Y-3.8368
X2.6Y-2.575
X2.6Y-2.7
X2.6Y-2.825
X2.6157Y-3.9089
X2.6294Y-3.1967
X2.7089Y-3.7273
X2.725Y-2.575
X2.725Y-2.825
X2.725Y-3.55
X2.725Y-4.275
X2.8Y-3.875
X2.8311Y-3.2931
X2.85Y-2.575
X2.85Y-2.7
X2.85Y-2.825
X2.85Y-3.6
X2.8934Y-3.7729
X2.9Y-4.51
X2.95Y-4.5109
X2.99Y-3.76
X3.025Y-4.675
X3.0582Y-3.3147
X3.0855Y-3.3439
X3.1174Y-4.0545
X3.125Y-4.425
X3.185Y-4.1
X3.37Y-5.22
X3.5Y-4.85
X3.55Y-3.975
X3.625Y-4.55
X3.725Y-4.925
T2
X3.3045Y-5.308
X3.4955Y-5.308
T3
X3.55Y-2.175
X3.65Y-2.175
X3.75Y-2.175
T4
X2.25Y-2.422
X2.25Y-2.522
X2.25Y-2.622
X2.25Y-2.722
X2.25Y-2.822
X2.25Y-2.922
X2.25Y-3.022
X2.25Y-3.122
X2.25Y-3.222
X2.25Y-3.322
X2.25Y-3.422
X2.25Y-3.522
X2.25Y-3.622
X2.25Y-3.722
X2.25Y-3.822
X2.25Y-3.922
X2.25Y-4.022
X2.25Y-4.122
X2.25Y-4.222
X3.25Y-2.422
X3.25Y-2.522
X3.25Y-2.622
X3.25Y-2.722
X3.25Y-2.822
X3.25Y-2.922
X3.25Y-3.022
X3.25Y-3.122
X3.25Y-3.222
X3.25Y-3.322
X3.25Y-3.422
X3.25Y-3.522
X3.25Y-3.622
X3.25Y-3.722
X3.25Y-3.822
X3.25Y-3.922
X3.25Y-4.022
X3.25Y-4.122
X3.25Y-4.222
X3.3953Y-2.3594
X3.3953Y-2.8094
X3.3953Y-3.2594
X3.3953Y-3.7094
X3.3953Y-4.1594
X3.3953Y-4.6094
X3.4346Y-2.5406
X3.4346Y-2.9906
X3.4346Y-3.4406
X3.4346Y-3.8906
X3.4346Y-4.3406
X3.4346Y-4.7906
X3.5921Y-2.5406
X3.5921Y-2.9906
X3.5921Y-3.4406
X3.5921Y-3.8906
X3.5921Y-4.3406
X3.5921Y-4.7906
X3.7102Y-2.5406
X3.7102Y-2.9906
X3.7102Y-3.4406
X3.7102Y-3.8906
X3.7102Y-4.3406
X3.7102Y-4.7906
T5
X3.5016Y-2.45
X3.5016Y-2.9
X3.5016Y-3.35
X3.5016Y-3.8
X3.5016Y-4.25
X3.5016Y-4.7
X3.7772Y-2.45
X3.7772Y-2.9
X3.7772Y-3.35
X3.7772Y-3.8
X3.7772Y-4.25
X3.7772Y-4.7
T6
X2.3Y-5.35
X2.5Y-5.35
X2.8Y-5.35
X3.0Y-5.35
T2
G00X3.2573Y-5.419
M15
G01X3.2573Y-5.4057
M16
G05
G00X3.5427Y-5.419
M15
G01X3.5427Y-5.4057
M16
G05
T0
M30
